<?xml version="1.0" encoding="utf-8" standalone="no"?>
<!DOCTYPE svg PUBLIC "-//W3C//DTD SVG 1.1//EN"
  "http://www.w3.org/Graphics/SVG/1.1/DTD/svg11.dtd">
<!-- Created with matplotlib (https://matplotlib.org/) -->
<svg height="360pt" version="1.1" viewBox="0 0 1584 360" width="1584pt" xmlns="http://www.w3.org/2000/svg" xmlns:xlink="http://www.w3.org/1999/xlink">
 <defs>
  <style type="text/css">
*{stroke-linecap:butt;stroke-linejoin:round;}
  </style>
 </defs>
 <g id="figure_1">
  <g id="patch_1">
   <path d="M 0 360 
L 1584 360 
L 1584 0 
L 0 0 
z
" style="fill:#ffffff;"/>
  </g>
  <g id="axes_1">
   <g id="patch_2">
    <path d="M 37.68375 333.054688 
L 1573.2 333.054688 
L 1573.2 25.543125 
L 37.68375 25.543125 
z
" style="fill:#eaeaf2;"/>
   </g>
   <g id="matplotlib.axis_1">
    <g id="xtick_1">
     <g id="line2d_1"/>
     <g id="text_1">
      <!-- D1 -->
      <defs>
       <path d="M 7.71875 0 
L 7.71875 71.578125 
L 32.375 71.578125 
Q 40.71875 71.578125 45.125 70.5625 
Q 51.265625 69.140625 55.609375 65.4375 
Q 61.28125 60.640625 64.078125 53.1875 
Q 66.890625 45.75 66.890625 36.1875 
Q 66.890625 28.03125 64.984375 21.734375 
Q 63.09375 15.4375 60.109375 11.296875 
Q 57.125 7.171875 53.578125 4.796875 
Q 50.046875 2.4375 45.046875 1.21875 
Q 40.046875 0 33.546875 0 
z
M 17.1875 8.453125 
L 32.46875 8.453125 
Q 39.546875 8.453125 43.578125 9.765625 
Q 47.609375 11.078125 50 13.484375 
Q 53.375 16.84375 55.25 22.53125 
Q 57.125 28.21875 57.125 36.328125 
Q 57.125 47.5625 53.4375 53.59375 
Q 49.75 59.625 44.484375 61.671875 
Q 40.671875 63.140625 32.234375 63.140625 
L 17.1875 63.140625 
z
" id="ArialMT-68"/>
       <path d="M 37.25 0 
L 28.46875 0 
L 28.46875 56 
Q 25.296875 52.984375 20.140625 49.953125 
Q 14.984375 46.921875 10.890625 45.40625 
L 10.890625 53.90625 
Q 18.265625 57.375 23.78125 62.296875 
Q 29.296875 67.234375 31.59375 71.875 
L 37.25 71.875 
z
" id="ArialMT-49"/>
      </defs>
      <g style="fill:#262626;" transform="translate(121.960604 347.2125)scale(0.1 -0.1)">
       <use xlink:href="#ArialMT-68"/>
       <use x="72.216797" xlink:href="#ArialMT-49"/>
      </g>
     </g>
    </g>
    <g id="xtick_2">
     <g id="line2d_2"/>
     <g id="text_2">
      <!-- D2 -->
      <defs>
       <path d="M 50.34375 8.453125 
L 50.34375 0 
L 3.03125 0 
Q 2.9375 3.171875 4.046875 6.109375 
Q 5.859375 10.9375 9.828125 15.625 
Q 13.8125 20.3125 21.34375 26.46875 
Q 33.015625 36.03125 37.109375 41.625 
Q 41.21875 47.21875 41.21875 52.203125 
Q 41.21875 57.421875 37.46875 61 
Q 33.734375 64.59375 27.734375 64.59375 
Q 21.390625 64.59375 17.578125 60.78125 
Q 13.765625 56.984375 13.71875 50.25 
L 4.6875 51.171875 
Q 5.609375 61.28125 11.65625 66.578125 
Q 17.71875 71.875 27.9375 71.875 
Q 38.234375 71.875 44.234375 66.15625 
Q 50.25 60.453125 50.25 52 
Q 50.25 47.703125 48.484375 43.546875 
Q 46.734375 39.40625 42.65625 34.8125 
Q 38.578125 30.21875 29.109375 22.21875 
Q 21.1875 15.578125 18.9375 13.203125 
Q 16.703125 10.84375 15.234375 8.453125 
z
" id="ArialMT-50"/>
      </defs>
      <g style="fill:#262626;" transform="translate(155.355912 347.2125)scale(0.1 -0.1)">
       <use xlink:href="#ArialMT-68"/>
       <use x="72.216797" xlink:href="#ArialMT-50"/>
      </g>
     </g>
    </g>
    <g id="xtick_3">
     <g id="line2d_3"/>
     <g id="text_3">
      <!-- D3 -->
      <defs>
       <path d="M 4.203125 18.890625 
L 12.984375 20.0625 
Q 14.5 12.59375 18.140625 9.296875 
Q 21.78125 6 27 6 
Q 33.203125 6 37.46875 10.296875 
Q 41.75 14.59375 41.75 20.953125 
Q 41.75 27 37.796875 30.921875 
Q 33.84375 34.859375 27.734375 34.859375 
Q 25.25 34.859375 21.53125 33.890625 
L 22.515625 41.609375 
Q 23.390625 41.5 23.921875 41.5 
Q 29.546875 41.5 34.03125 44.421875 
Q 38.53125 47.359375 38.53125 53.46875 
Q 38.53125 58.296875 35.25 61.46875 
Q 31.984375 64.65625 26.8125 64.65625 
Q 21.6875 64.65625 18.265625 61.421875 
Q 14.84375 58.203125 13.875 51.765625 
L 5.078125 53.328125 
Q 6.6875 62.15625 12.390625 67.015625 
Q 18.109375 71.875 26.609375 71.875 
Q 32.46875 71.875 37.390625 69.359375 
Q 42.328125 66.84375 44.9375 62.5 
Q 47.5625 58.15625 47.5625 53.265625 
Q 47.5625 48.640625 45.0625 44.828125 
Q 42.578125 41.015625 37.703125 38.765625 
Q 44.046875 37.3125 47.5625 32.6875 
Q 51.078125 28.078125 51.078125 21.140625 
Q 51.078125 11.765625 44.234375 5.25 
Q 37.40625 -1.265625 26.953125 -1.265625 
Q 17.53125 -1.265625 11.296875 4.34375 
Q 5.078125 9.96875 4.203125 18.890625 
z
" id="ArialMT-51"/>
      </defs>
      <g style="fill:#262626;" transform="translate(188.75122 347.2125)scale(0.1 -0.1)">
       <use xlink:href="#ArialMT-68"/>
       <use x="72.216797" xlink:href="#ArialMT-51"/>
      </g>
     </g>
    </g>
    <g id="xtick_4">
     <g id="line2d_4"/>
     <g id="text_4">
      <!-- D4 -->
      <defs>
       <path d="M 32.328125 0 
L 32.328125 17.140625 
L 1.265625 17.140625 
L 1.265625 25.203125 
L 33.9375 71.578125 
L 41.109375 71.578125 
L 41.109375 25.203125 
L 50.78125 25.203125 
L 50.78125 17.140625 
L 41.109375 17.140625 
L 41.109375 0 
z
M 32.328125 25.203125 
L 32.328125 57.46875 
L 9.90625 25.203125 
z
" id="ArialMT-52"/>
      </defs>
      <g style="fill:#262626;" transform="translate(222.146527 347.2125)scale(0.1 -0.1)">
       <use xlink:href="#ArialMT-68"/>
       <use x="72.216797" xlink:href="#ArialMT-52"/>
      </g>
     </g>
    </g>
    <g id="xtick_5">
     <g id="line2d_5"/>
     <g id="text_5">
      <!-- D5 -->
      <defs>
       <path d="M 4.15625 18.75 
L 13.375 19.53125 
Q 14.40625 12.796875 18.140625 9.390625 
Q 21.875 6 27.15625 6 
Q 33.5 6 37.890625 10.78125 
Q 42.28125 15.578125 42.28125 23.484375 
Q 42.28125 31 38.0625 35.34375 
Q 33.84375 39.703125 27 39.703125 
Q 22.75 39.703125 19.328125 37.765625 
Q 15.921875 35.84375 13.96875 32.765625 
L 5.71875 33.84375 
L 12.640625 70.609375 
L 48.25 70.609375 
L 48.25 62.203125 
L 19.671875 62.203125 
L 15.828125 42.96875 
Q 22.265625 47.46875 29.34375 47.46875 
Q 38.71875 47.46875 45.15625 40.96875 
Q 51.609375 34.46875 51.609375 24.265625 
Q 51.609375 14.546875 45.953125 7.46875 
Q 39.0625 -1.21875 27.15625 -1.21875 
Q 17.390625 -1.21875 11.203125 4.25 
Q 5.03125 9.71875 4.15625 18.75 
z
" id="ArialMT-53"/>
      </defs>
      <g style="fill:#262626;" transform="translate(255.541835 347.2125)scale(0.1 -0.1)">
       <use xlink:href="#ArialMT-68"/>
       <use x="72.216797" xlink:href="#ArialMT-53"/>
      </g>
     </g>
    </g>
    <g id="xtick_6">
     <g id="line2d_6"/>
     <g id="text_6">
      <!-- D6 -->
      <defs>
       <path d="M 49.75 54.046875 
L 41.015625 53.375 
Q 39.84375 58.546875 37.703125 60.890625 
Q 34.125 64.65625 28.90625 64.65625 
Q 24.703125 64.65625 21.53125 62.3125 
Q 17.390625 59.28125 14.984375 53.46875 
Q 12.59375 47.65625 12.5 36.921875 
Q 15.671875 41.75 20.265625 44.09375 
Q 24.859375 46.4375 29.890625 46.4375 
Q 38.671875 46.4375 44.84375 39.96875 
Q 51.03125 33.5 51.03125 23.25 
Q 51.03125 16.5 48.125 10.71875 
Q 45.21875 4.9375 40.140625 1.859375 
Q 35.0625 -1.21875 28.609375 -1.21875 
Q 17.625 -1.21875 10.6875 6.859375 
Q 3.765625 14.9375 3.765625 33.5 
Q 3.765625 54.25 11.421875 63.671875 
Q 18.109375 71.875 29.4375 71.875 
Q 37.890625 71.875 43.28125 67.140625 
Q 48.6875 62.40625 49.75 54.046875 
z
M 13.875 23.1875 
Q 13.875 18.65625 15.796875 14.5 
Q 17.71875 10.359375 21.1875 8.171875 
Q 24.65625 6 28.46875 6 
Q 34.03125 6 38.03125 10.484375 
Q 42.046875 14.984375 42.046875 22.703125 
Q 42.046875 30.125 38.078125 34.390625 
Q 34.125 38.671875 28.125 38.671875 
Q 22.171875 38.671875 18.015625 34.390625 
Q 13.875 30.125 13.875 23.1875 
z
" id="ArialMT-54"/>
      </defs>
      <g style="fill:#262626;" transform="translate(288.937143 347.2125)scale(0.1 -0.1)">
       <use xlink:href="#ArialMT-68"/>
       <use x="72.216797" xlink:href="#ArialMT-54"/>
      </g>
     </g>
    </g>
    <g id="xtick_7">
     <g id="line2d_7"/>
     <g id="text_7">
      <!-- D7 -->
      <defs>
       <path d="M 4.734375 62.203125 
L 4.734375 70.65625 
L 51.078125 70.65625 
L 51.078125 63.8125 
Q 44.234375 56.546875 37.515625 44.484375 
Q 30.8125 32.421875 27.15625 19.671875 
Q 24.515625 10.6875 23.78125 0 
L 14.75 0 
Q 14.890625 8.453125 18.0625 20.40625 
Q 21.234375 32.375 27.171875 43.484375 
Q 33.109375 54.59375 39.796875 62.203125 
z
" id="ArialMT-55"/>
      </defs>
      <g style="fill:#262626;" transform="translate(322.332451 347.2125)scale(0.1 -0.1)">
       <use xlink:href="#ArialMT-68"/>
       <use x="72.216797" xlink:href="#ArialMT-55"/>
      </g>
     </g>
    </g>
    <g id="xtick_8">
     <g id="line2d_8"/>
     <g id="text_8">
      <!-- D8 -->
      <defs>
       <path d="M 17.671875 38.8125 
Q 12.203125 40.828125 9.5625 44.53125 
Q 6.9375 48.25 6.9375 53.421875 
Q 6.9375 61.234375 12.546875 66.546875 
Q 18.171875 71.875 27.484375 71.875 
Q 36.859375 71.875 42.578125 66.421875 
Q 48.296875 60.984375 48.296875 53.171875 
Q 48.296875 48.1875 45.671875 44.5 
Q 43.0625 40.828125 37.75 38.8125 
Q 44.34375 36.671875 47.78125 31.875 
Q 51.21875 27.09375 51.21875 20.453125 
Q 51.21875 11.28125 44.71875 5.03125 
Q 38.234375 -1.21875 27.640625 -1.21875 
Q 17.046875 -1.21875 10.546875 5.046875 
Q 4.046875 11.328125 4.046875 20.703125 
Q 4.046875 27.6875 7.59375 32.390625 
Q 11.140625 37.109375 17.671875 38.8125 
z
M 15.921875 53.71875 
Q 15.921875 48.640625 19.1875 45.40625 
Q 22.46875 42.1875 27.6875 42.1875 
Q 32.765625 42.1875 36.015625 45.375 
Q 39.265625 48.578125 39.265625 53.21875 
Q 39.265625 58.0625 35.90625 61.359375 
Q 32.5625 64.65625 27.59375 64.65625 
Q 22.5625 64.65625 19.234375 61.421875 
Q 15.921875 58.203125 15.921875 53.71875 
z
M 13.09375 20.65625 
Q 13.09375 16.890625 14.875 13.375 
Q 16.65625 9.859375 20.171875 7.921875 
Q 23.6875 6 27.734375 6 
Q 34.03125 6 38.125 10.046875 
Q 42.234375 14.109375 42.234375 20.359375 
Q 42.234375 26.703125 38.015625 30.859375 
Q 33.796875 35.015625 27.4375 35.015625 
Q 21.234375 35.015625 17.15625 30.90625 
Q 13.09375 26.8125 13.09375 20.65625 
z
" id="ArialMT-56"/>
      </defs>
      <g style="fill:#262626;" transform="translate(355.727758 347.2125)scale(0.1 -0.1)">
       <use xlink:href="#ArialMT-68"/>
       <use x="72.216797" xlink:href="#ArialMT-56"/>
      </g>
     </g>
    </g>
    <g id="xtick_9">
     <g id="line2d_9"/>
     <g id="text_9">
      <!-- EA1 -->
      <defs>
       <path d="M 7.90625 0 
L 7.90625 71.578125 
L 59.671875 71.578125 
L 59.671875 63.140625 
L 17.390625 63.140625 
L 17.390625 41.21875 
L 56.984375 41.21875 
L 56.984375 32.8125 
L 17.390625 32.8125 
L 17.390625 8.453125 
L 61.328125 8.453125 
L 61.328125 0 
z
" id="ArialMT-69"/>
       <path d="M -0.140625 0 
L 27.34375 71.578125 
L 37.546875 71.578125 
L 66.84375 0 
L 56.0625 0 
L 47.703125 21.6875 
L 17.78125 21.6875 
L 9.90625 0 
z
M 20.515625 29.390625 
L 44.78125 29.390625 
L 37.3125 49.21875 
Q 33.890625 58.25 32.234375 64.0625 
Q 30.859375 57.171875 28.375 50.390625 
z
" id="ArialMT-65"/>
      </defs>
      <g style="fill:#262626;" transform="translate(386.063691 347.2125)scale(0.1 -0.1)">
       <use xlink:href="#ArialMT-69"/>
       <use x="66.699219" xlink:href="#ArialMT-65"/>
       <use x="133.398438" xlink:href="#ArialMT-49"/>
      </g>
     </g>
    </g>
    <g id="xtick_10">
     <g id="line2d_10"/>
     <g id="text_10">
      <!-- EA2 -->
      <g style="fill:#262626;" transform="translate(419.458999 347.2125)scale(0.1 -0.1)">
       <use xlink:href="#ArialMT-69"/>
       <use x="66.699219" xlink:href="#ArialMT-65"/>
       <use x="133.398438" xlink:href="#ArialMT-50"/>
      </g>
     </g>
    </g>
    <g id="xtick_11">
     <g id="line2d_11"/>
     <g id="text_11">
      <!-- EA3 -->
      <g style="fill:#262626;" transform="translate(452.854307 347.2125)scale(0.1 -0.1)">
       <use xlink:href="#ArialMT-69"/>
       <use x="66.699219" xlink:href="#ArialMT-65"/>
       <use x="133.398438" xlink:href="#ArialMT-51"/>
      </g>
     </g>
    </g>
    <g id="xtick_12">
     <g id="line2d_12"/>
     <g id="text_12">
      <!-- EA4 -->
      <g style="fill:#262626;" transform="translate(486.249614 347.2125)scale(0.1 -0.1)">
       <use xlink:href="#ArialMT-69"/>
       <use x="66.699219" xlink:href="#ArialMT-65"/>
       <use x="133.398438" xlink:href="#ArialMT-52"/>
      </g>
     </g>
    </g>
    <g id="xtick_13">
     <g id="line2d_13"/>
     <g id="text_13">
      <!-- EA5 -->
      <g style="fill:#262626;" transform="translate(519.644922 347.2125)scale(0.1 -0.1)">
       <use xlink:href="#ArialMT-69"/>
       <use x="66.699219" xlink:href="#ArialMT-65"/>
       <use x="133.398438" xlink:href="#ArialMT-53"/>
      </g>
     </g>
    </g>
    <g id="xtick_14">
     <g id="line2d_14"/>
     <g id="text_14">
      <!-- EA6 -->
      <g style="fill:#262626;" transform="translate(553.04023 347.2125)scale(0.1 -0.1)">
       <use xlink:href="#ArialMT-69"/>
       <use x="66.699219" xlink:href="#ArialMT-65"/>
       <use x="133.398438" xlink:href="#ArialMT-54"/>
      </g>
     </g>
    </g>
    <g id="xtick_15">
     <g id="line2d_15"/>
     <g id="text_15">
      <!-- EL1 -->
      <defs>
       <path d="M 7.328125 0 
L 7.328125 71.578125 
L 16.796875 71.578125 
L 16.796875 8.453125 
L 52.046875 8.453125 
L 52.046875 0 
z
" id="ArialMT-76"/>
      </defs>
      <g style="fill:#262626;" transform="translate(586.990225 347.2125)scale(0.1 -0.1)">
       <use xlink:href="#ArialMT-69"/>
       <use x="66.699219" xlink:href="#ArialMT-76"/>
       <use x="122.314453" xlink:href="#ArialMT-49"/>
      </g>
     </g>
    </g>
    <g id="xtick_16">
     <g id="line2d_16"/>
     <g id="text_16">
      <!-- EL2 -->
      <g style="fill:#262626;" transform="translate(620.385533 347.2125)scale(0.1 -0.1)">
       <use xlink:href="#ArialMT-69"/>
       <use x="66.699219" xlink:href="#ArialMT-76"/>
       <use x="122.314453" xlink:href="#ArialMT-50"/>
      </g>
     </g>
    </g>
    <g id="xtick_17">
     <g id="line2d_17"/>
     <g id="text_17">
      <!-- EL3 -->
      <g style="fill:#262626;" transform="translate(653.780841 347.2125)scale(0.1 -0.1)">
       <use xlink:href="#ArialMT-69"/>
       <use x="66.699219" xlink:href="#ArialMT-76"/>
       <use x="122.314453" xlink:href="#ArialMT-51"/>
      </g>
     </g>
    </g>
    <g id="xtick_18">
     <g id="line2d_18"/>
     <g id="text_18">
      <!-- EL4 -->
      <g style="fill:#262626;" transform="translate(687.176148 347.2125)scale(0.1 -0.1)">
       <use xlink:href="#ArialMT-69"/>
       <use x="66.699219" xlink:href="#ArialMT-76"/>
       <use x="122.314453" xlink:href="#ArialMT-52"/>
      </g>
     </g>
    </g>
    <g id="xtick_19">
     <g id="line2d_19"/>
     <g id="text_19">
      <!-- EL5 -->
      <g style="fill:#262626;" transform="translate(720.571456 347.2125)scale(0.1 -0.1)">
       <use xlink:href="#ArialMT-69"/>
       <use x="66.699219" xlink:href="#ArialMT-76"/>
       <use x="122.314453" xlink:href="#ArialMT-53"/>
      </g>
     </g>
    </g>
    <g id="xtick_20">
     <g id="line2d_20"/>
     <g id="text_20">
      <!-- EL6 -->
      <g style="fill:#262626;" transform="translate(753.966764 347.2125)scale(0.1 -0.1)">
       <use xlink:href="#ArialMT-69"/>
       <use x="66.699219" xlink:href="#ArialMT-76"/>
       <use x="122.314453" xlink:href="#ArialMT-54"/>
      </g>
     </g>
    </g>
    <g id="xtick_21">
     <g id="line2d_21"/>
     <g id="text_21">
      <!-- EL7 -->
      <g style="fill:#262626;" transform="translate(787.362072 347.2125)scale(0.1 -0.1)">
       <use xlink:href="#ArialMT-69"/>
       <use x="66.699219" xlink:href="#ArialMT-76"/>
       <use x="122.314453" xlink:href="#ArialMT-55"/>
      </g>
     </g>
    </g>
    <g id="xtick_22">
     <g id="line2d_22"/>
     <g id="text_22">
      <!-- G1 -->
      <defs>
       <path d="M 41.21875 28.078125 
L 41.21875 36.46875 
L 71.53125 36.53125 
L 71.53125 9.96875 
Q 64.546875 4.390625 57.125 1.578125 
Q 49.703125 -1.21875 41.890625 -1.21875 
Q 31.34375 -1.21875 22.71875 3.296875 
Q 14.109375 7.8125 9.71875 16.359375 
Q 5.328125 24.90625 5.328125 35.453125 
Q 5.328125 45.90625 9.6875 54.953125 
Q 14.0625 64.015625 22.265625 68.40625 
Q 30.46875 72.796875 41.15625 72.796875 
Q 48.921875 72.796875 55.1875 70.28125 
Q 61.46875 67.78125 65.03125 63.28125 
Q 68.609375 58.796875 70.453125 51.5625 
L 61.921875 49.21875 
Q 60.296875 54.6875 57.90625 57.8125 
Q 55.515625 60.9375 51.0625 62.8125 
Q 46.625 64.703125 41.21875 64.703125 
Q 34.71875 64.703125 29.984375 62.71875 
Q 25.25 60.75 22.34375 57.515625 
Q 19.4375 54.296875 17.828125 50.4375 
Q 15.09375 43.796875 15.09375 36.03125 
Q 15.09375 26.46875 18.390625 20.015625 
Q 21.6875 13.578125 27.984375 10.453125 
Q 34.28125 7.328125 41.359375 7.328125 
Q 47.515625 7.328125 53.375 9.6875 
Q 59.234375 12.0625 62.25 14.75 
L 62.25 28.078125 
z
" id="ArialMT-71"/>
      </defs>
      <g style="fill:#262626;" transform="translate(822.983942 347.2125)scale(0.1 -0.1)">
       <use xlink:href="#ArialMT-71"/>
       <use x="77.783203" xlink:href="#ArialMT-49"/>
      </g>
     </g>
    </g>
    <g id="xtick_23">
     <g id="line2d_23"/>
     <g id="text_23">
      <!-- G2 -->
      <g style="fill:#262626;" transform="translate(856.37925 347.2125)scale(0.1 -0.1)">
       <use xlink:href="#ArialMT-71"/>
       <use x="77.783203" xlink:href="#ArialMT-50"/>
      </g>
     </g>
    </g>
    <g id="xtick_24">
     <g id="line2d_24"/>
     <g id="text_24">
      <!-- G3 -->
      <g style="fill:#262626;" transform="translate(889.774557 347.2125)scale(0.1 -0.1)">
       <use xlink:href="#ArialMT-71"/>
       <use x="77.783203" xlink:href="#ArialMT-51"/>
      </g>
     </g>
    </g>
    <g id="xtick_25">
     <g id="line2d_25"/>
     <g id="text_25">
      <!-- G4 -->
      <g style="fill:#262626;" transform="translate(923.169865 347.2125)scale(0.1 -0.1)">
       <use xlink:href="#ArialMT-71"/>
       <use x="77.783203" xlink:href="#ArialMT-52"/>
      </g>
     </g>
    </g>
    <g id="xtick_26">
     <g id="line2d_26"/>
     <g id="text_26">
      <!-- P1 -->
      <defs>
       <path d="M 7.71875 0 
L 7.71875 71.578125 
L 34.71875 71.578125 
Q 41.84375 71.578125 45.609375 70.90625 
Q 50.875 70.015625 54.4375 67.546875 
Q 58.015625 65.09375 60.1875 60.640625 
Q 62.359375 56.203125 62.359375 50.875 
Q 62.359375 41.75 56.546875 35.421875 
Q 50.734375 29.109375 35.546875 29.109375 
L 17.1875 29.109375 
L 17.1875 0 
z
M 17.1875 37.546875 
L 35.6875 37.546875 
Q 44.875 37.546875 48.734375 40.96875 
Q 52.59375 44.390625 52.59375 50.59375 
Q 52.59375 55.078125 50.3125 58.265625 
Q 48.046875 61.46875 44.34375 62.5 
Q 41.9375 63.140625 35.5 63.140625 
L 17.1875 63.140625 
z
" id="ArialMT-80"/>
      </defs>
      <g style="fill:#262626;" transform="translate(957.119079 347.2125)scale(0.1 -0.1)">
       <use xlink:href="#ArialMT-80"/>
       <use x="66.699219" xlink:href="#ArialMT-49"/>
      </g>
     </g>
    </g>
    <g id="xtick_27">
     <g id="line2d_27"/>
     <g id="text_27">
      <!-- P10 -->
      <defs>
       <path d="M 4.15625 35.296875 
Q 4.15625 48 6.765625 55.734375 
Q 9.375 63.484375 14.515625 67.671875 
Q 19.671875 71.875 27.484375 71.875 
Q 33.25 71.875 37.59375 69.546875 
Q 41.9375 67.234375 44.765625 62.859375 
Q 47.609375 58.5 49.21875 52.21875 
Q 50.828125 45.953125 50.828125 35.296875 
Q 50.828125 22.703125 48.234375 14.96875 
Q 45.65625 7.234375 40.5 3 
Q 35.359375 -1.21875 27.484375 -1.21875 
Q 17.140625 -1.21875 11.234375 6.203125 
Q 4.15625 15.140625 4.15625 35.296875 
z
M 13.1875 35.296875 
Q 13.1875 17.671875 17.3125 11.828125 
Q 21.4375 6 27.484375 6 
Q 33.546875 6 37.671875 11.859375 
Q 41.796875 17.71875 41.796875 35.296875 
Q 41.796875 52.984375 37.671875 58.78125 
Q 33.546875 64.59375 27.390625 64.59375 
Q 21.34375 64.59375 17.71875 59.46875 
Q 13.1875 52.9375 13.1875 35.296875 
z
" id="ArialMT-48"/>
      </defs>
      <g style="fill:#262626;" transform="translate(987.733918 347.2125)scale(0.1 -0.1)">
       <use xlink:href="#ArialMT-80"/>
       <use x="66.699219" xlink:href="#ArialMT-49"/>
       <use x="122.314453" xlink:href="#ArialMT-48"/>
      </g>
     </g>
    </g>
    <g id="xtick_28">
     <g id="line2d_28"/>
     <g id="text_28">
      <!-- P11 -->
      <g style="fill:#262626;" transform="translate(1021.134695 347.2125)scale(0.1 -0.1)">
       <use xlink:href="#ArialMT-80"/>
       <use x="66.699219" xlink:href="#ArialMT-49"/>
       <use x="122.205078" xlink:href="#ArialMT-49"/>
      </g>
     </g>
    </g>
    <g id="xtick_29">
     <g id="line2d_29"/>
     <g id="text_29">
      <!-- P2 -->
      <g style="fill:#262626;" transform="translate(1057.305002 347.2125)scale(0.1 -0.1)">
       <use xlink:href="#ArialMT-80"/>
       <use x="66.699219" xlink:href="#ArialMT-50"/>
      </g>
     </g>
    </g>
    <g id="xtick_30">
     <g id="line2d_30"/>
     <g id="text_30">
      <!-- P3 -->
      <g style="fill:#262626;" transform="translate(1090.70031 347.2125)scale(0.1 -0.1)">
       <use xlink:href="#ArialMT-80"/>
       <use x="66.699219" xlink:href="#ArialMT-51"/>
      </g>
     </g>
    </g>
    <g id="xtick_31">
     <g id="line2d_31"/>
     <g id="text_31">
      <!-- P4 -->
      <g style="fill:#262626;" transform="translate(1124.095618 347.2125)scale(0.1 -0.1)">
       <use xlink:href="#ArialMT-80"/>
       <use x="66.699219" xlink:href="#ArialMT-52"/>
      </g>
     </g>
    </g>
    <g id="xtick_32">
     <g id="line2d_32"/>
     <g id="text_32">
      <!-- P5 -->
      <g style="fill:#262626;" transform="translate(1157.490926 347.2125)scale(0.1 -0.1)">
       <use xlink:href="#ArialMT-80"/>
       <use x="66.699219" xlink:href="#ArialMT-53"/>
      </g>
     </g>
    </g>
    <g id="xtick_33">
     <g id="line2d_33"/>
     <g id="text_33">
      <!-- P6 -->
      <g style="fill:#262626;" transform="translate(1190.886233 347.2125)scale(0.1 -0.1)">
       <use xlink:href="#ArialMT-80"/>
       <use x="66.699219" xlink:href="#ArialMT-54"/>
      </g>
     </g>
    </g>
    <g id="xtick_34">
     <g id="line2d_34"/>
     <g id="text_34">
      <!-- P7 -->
      <g style="fill:#262626;" transform="translate(1224.281541 347.2125)scale(0.1 -0.1)">
       <use xlink:href="#ArialMT-80"/>
       <use x="66.699219" xlink:href="#ArialMT-55"/>
      </g>
     </g>
    </g>
    <g id="xtick_35">
     <g id="line2d_35"/>
     <g id="text_35">
      <!-- P8 -->
      <g style="fill:#262626;" transform="translate(1257.676849 347.2125)scale(0.1 -0.1)">
       <use xlink:href="#ArialMT-80"/>
       <use x="66.699219" xlink:href="#ArialMT-56"/>
      </g>
     </g>
    </g>
    <g id="xtick_36">
     <g id="line2d_36"/>
     <g id="text_36">
      <!-- P9 -->
      <defs>
       <path d="M 5.46875 16.546875 
L 13.921875 17.328125 
Q 14.984375 11.375 18.015625 8.6875 
Q 21.046875 6 25.78125 6 
Q 29.828125 6 32.875 7.859375 
Q 35.9375 9.71875 37.890625 12.8125 
Q 39.84375 15.921875 41.15625 21.1875 
Q 42.484375 26.46875 42.484375 31.9375 
Q 42.484375 32.515625 42.4375 33.6875 
Q 39.796875 29.5 35.234375 26.875 
Q 30.671875 24.265625 25.34375 24.265625 
Q 16.453125 24.265625 10.296875 30.703125 
Q 4.15625 37.15625 4.15625 47.703125 
Q 4.15625 58.59375 10.578125 65.234375 
Q 17 71.875 26.65625 71.875 
Q 33.640625 71.875 39.421875 68.109375 
Q 45.21875 64.359375 48.21875 57.390625 
Q 51.21875 50.4375 51.21875 37.25 
Q 51.21875 23.53125 48.234375 15.40625 
Q 45.265625 7.28125 39.375 3.03125 
Q 33.5 -1.21875 25.59375 -1.21875 
Q 17.1875 -1.21875 11.859375 3.4375 
Q 6.546875 8.109375 5.46875 16.546875 
z
M 41.453125 48.140625 
Q 41.453125 55.71875 37.421875 60.15625 
Q 33.40625 64.59375 27.734375 64.59375 
Q 21.875 64.59375 17.53125 59.8125 
Q 13.1875 55.03125 13.1875 47.40625 
Q 13.1875 40.578125 17.3125 36.296875 
Q 21.4375 32.03125 27.484375 32.03125 
Q 33.59375 32.03125 37.515625 36.296875 
Q 41.453125 40.578125 41.453125 48.140625 
z
" id="ArialMT-57"/>
      </defs>
      <g style="fill:#262626;" transform="translate(1291.072157 347.2125)scale(0.1 -0.1)">
       <use xlink:href="#ArialMT-80"/>
       <use x="66.699219" xlink:href="#ArialMT-57"/>
      </g>
     </g>
    </g>
    <g id="xtick_37">
     <g id="line2d_37"/>
     <g id="text_37">
      <!-- SM1 -->
      <defs>
       <path d="M 4.5 23 
L 13.421875 23.78125 
Q 14.0625 18.40625 16.375 14.96875 
Q 18.703125 11.53125 23.578125 9.40625 
Q 28.46875 7.28125 34.578125 7.28125 
Q 39.984375 7.28125 44.140625 8.890625 
Q 48.296875 10.5 50.3125 13.296875 
Q 52.34375 16.109375 52.34375 19.4375 
Q 52.34375 22.796875 50.390625 25.3125 
Q 48.4375 27.828125 43.953125 29.546875 
Q 41.0625 30.671875 31.203125 33.03125 
Q 21.34375 35.40625 17.390625 37.5 
Q 12.25 40.1875 9.734375 44.15625 
Q 7.234375 48.140625 7.234375 53.078125 
Q 7.234375 58.5 10.296875 63.203125 
Q 13.375 67.921875 19.28125 70.359375 
Q 25.203125 72.796875 32.421875 72.796875 
Q 40.375 72.796875 46.453125 70.234375 
Q 52.546875 67.671875 55.8125 62.6875 
Q 59.078125 57.71875 59.328125 51.421875 
L 50.25 50.734375 
Q 49.515625 57.515625 45.28125 60.984375 
Q 41.0625 64.453125 32.8125 64.453125 
Q 24.21875 64.453125 20.28125 61.296875 
Q 16.359375 58.15625 16.359375 53.71875 
Q 16.359375 49.859375 19.140625 47.359375 
Q 21.875 44.875 33.421875 42.265625 
Q 44.96875 39.65625 49.265625 37.703125 
Q 55.515625 34.8125 58.484375 30.390625 
Q 61.46875 25.984375 61.46875 20.21875 
Q 61.46875 14.5 58.203125 9.4375 
Q 54.9375 4.390625 48.796875 1.578125 
Q 42.671875 -1.21875 35.015625 -1.21875 
Q 25.296875 -1.21875 18.71875 1.609375 
Q 12.15625 4.4375 8.421875 10.125 
Q 4.6875 15.828125 4.5 23 
z
" id="ArialMT-83"/>
       <path d="M 7.421875 0 
L 7.421875 71.578125 
L 21.6875 71.578125 
L 38.625 20.90625 
Q 40.96875 13.8125 42.046875 10.296875 
Q 43.265625 14.203125 45.84375 21.78125 
L 62.984375 71.578125 
L 75.734375 71.578125 
L 75.734375 0 
L 66.609375 0 
L 66.609375 59.90625 
L 45.796875 0 
L 37.25 0 
L 16.546875 60.9375 
L 16.546875 0 
z
" id="ArialMT-77"/>
      </defs>
      <g style="fill:#262626;" transform="translate(1320.302621 347.2125)scale(0.1 -0.1)">
       <use xlink:href="#ArialMT-83"/>
       <use x="66.699219" xlink:href="#ArialMT-77"/>
       <use x="150" xlink:href="#ArialMT-49"/>
      </g>
     </g>
    </g>
    <g id="xtick_38">
     <g id="line2d_38"/>
     <g id="text_38">
      <!-- SM2 -->
      <g style="fill:#262626;" transform="translate(1353.697928 347.2125)scale(0.1 -0.1)">
       <use xlink:href="#ArialMT-83"/>
       <use x="66.699219" xlink:href="#ArialMT-77"/>
       <use x="150" xlink:href="#ArialMT-50"/>
      </g>
     </g>
    </g>
    <g id="xtick_39">
     <g id="line2d_39"/>
     <g id="text_39">
      <!-- SM3 -->
      <g style="fill:#262626;" transform="translate(1387.093236 347.2125)scale(0.1 -0.1)">
       <use xlink:href="#ArialMT-83"/>
       <use x="66.699219" xlink:href="#ArialMT-77"/>
       <use x="150" xlink:href="#ArialMT-51"/>
      </g>
     </g>
    </g>
    <g id="xtick_40">
     <g id="line2d_40"/>
     <g id="text_40">
      <!-- SM4 -->
      <g style="fill:#262626;" transform="translate(1420.488544 347.2125)scale(0.1 -0.1)">
       <use xlink:href="#ArialMT-83"/>
       <use x="66.699219" xlink:href="#ArialMT-77"/>
       <use x="150" xlink:href="#ArialMT-52"/>
      </g>
     </g>
    </g>
    <g id="xtick_41">
     <g id="line2d_41"/>
     <g id="text_41">
      <!-- SM5 -->
      <g style="fill:#262626;" transform="translate(1453.883851 347.2125)scale(0.1 -0.1)">
       <use xlink:href="#ArialMT-83"/>
       <use x="66.699219" xlink:href="#ArialMT-77"/>
       <use x="150" xlink:href="#ArialMT-53"/>
      </g>
     </g>
    </g>
    <g id="xtick_42">
     <g id="line2d_42"/>
     <g id="text_42">
      <!-- SM6 -->
      <g style="fill:#262626;" transform="translate(1487.279159 347.2125)scale(0.1 -0.1)">
       <use xlink:href="#ArialMT-83"/>
       <use x="66.699219" xlink:href="#ArialMT-77"/>
       <use x="150" xlink:href="#ArialMT-54"/>
      </g>
     </g>
    </g>
   </g>
   <g id="matplotlib.axis_2">
    <g id="ytick_1">
     <g id="line2d_43"/>
     <g id="text_43">
      <!-- 0 -->
      <g style="fill:#262626;" transform="translate(25.122812 336.633594)scale(0.1 -0.1)">
       <use xlink:href="#ArialMT-48"/>
      </g>
     </g>
    </g>
    <g id="ytick_2">
     <g id="line2d_44"/>
     <g id="text_44">
      <!-- 1 -->
      <g style="fill:#262626;" transform="translate(25.122812 300.387535)scale(0.1 -0.1)">
       <use xlink:href="#ArialMT-49"/>
      </g>
     </g>
    </g>
    <g id="ytick_3">
     <g id="line2d_45"/>
     <g id="text_45">
      <!-- 2 -->
      <g style="fill:#262626;" transform="translate(25.122812 264.141476)scale(0.1 -0.1)">
       <use xlink:href="#ArialMT-50"/>
      </g>
     </g>
    </g>
    <g id="ytick_4">
     <g id="line2d_46"/>
     <g id="text_46">
      <!-- 3 -->
      <g style="fill:#262626;" transform="translate(25.122812 227.895417)scale(0.1 -0.1)">
       <use xlink:href="#ArialMT-51"/>
      </g>
     </g>
    </g>
    <g id="ytick_5">
     <g id="line2d_47"/>
     <g id="text_47">
      <!-- 4 -->
      <g style="fill:#262626;" transform="translate(25.122812 191.649359)scale(0.1 -0.1)">
       <use xlink:href="#ArialMT-52"/>
      </g>
     </g>
    </g>
    <g id="ytick_6">
     <g id="line2d_48"/>
     <g id="text_48">
      <!-- 5 -->
      <g style="fill:#262626;" transform="translate(25.122812 155.4033)scale(0.1 -0.1)">
       <use xlink:href="#ArialMT-53"/>
      </g>
     </g>
    </g>
    <g id="ytick_7">
     <g id="line2d_49"/>
     <g id="text_49">
      <!-- 6 -->
      <g style="fill:#262626;" transform="translate(25.122812 119.157241)scale(0.1 -0.1)">
       <use xlink:href="#ArialMT-54"/>
      </g>
     </g>
    </g>
    <g id="ytick_8">
     <g id="line2d_50"/>
     <g id="text_50">
      <!-- 7 -->
      <g style="fill:#262626;" transform="translate(25.122812 82.911182)scale(0.1 -0.1)">
       <use xlink:href="#ArialMT-55"/>
      </g>
     </g>
    </g>
    <g id="ytick_9">
     <g id="line2d_51"/>
     <g id="text_51">
      <!-- 8 -->
      <g style="fill:#262626;" transform="translate(25.122812 46.665124)scale(0.1 -0.1)">
       <use xlink:href="#ArialMT-56"/>
      </g>
     </g>
    </g>
    <g id="text_52">
     <!-- Skill Profficiency -->
     <defs>
      <path d="M 6.640625 0 
L 6.640625 71.578125 
L 15.4375 71.578125 
L 15.4375 30.765625 
L 36.234375 51.859375 
L 47.609375 51.859375 
L 27.78125 32.625 
L 49.609375 0 
L 38.765625 0 
L 21.625 26.515625 
L 15.4375 20.5625 
L 15.4375 0 
z
" id="ArialMT-107"/>
      <path d="M 6.640625 61.46875 
L 6.640625 71.578125 
L 15.4375 71.578125 
L 15.4375 61.46875 
z
M 6.640625 0 
L 6.640625 51.859375 
L 15.4375 51.859375 
L 15.4375 0 
z
" id="ArialMT-105"/>
      <path d="M 6.390625 0 
L 6.390625 71.578125 
L 15.1875 71.578125 
L 15.1875 0 
z
" id="ArialMT-108"/>
      <path id="ArialMT-32"/>
      <path d="M 6.5 0 
L 6.5 51.859375 
L 14.40625 51.859375 
L 14.40625 44 
Q 17.4375 49.515625 20 51.265625 
Q 22.5625 53.03125 25.640625 53.03125 
Q 30.078125 53.03125 34.671875 50.203125 
L 31.640625 42.046875 
Q 28.421875 43.953125 25.203125 43.953125 
Q 22.3125 43.953125 20.015625 42.21875 
Q 17.71875 40.484375 16.75 37.40625 
Q 15.28125 32.71875 15.28125 27.15625 
L 15.28125 0 
z
" id="ArialMT-114"/>
      <path d="M 3.328125 25.921875 
Q 3.328125 40.328125 11.328125 47.265625 
Q 18.015625 53.03125 27.640625 53.03125 
Q 38.328125 53.03125 45.109375 46.015625 
Q 51.90625 39.015625 51.90625 26.65625 
Q 51.90625 16.65625 48.90625 10.90625 
Q 45.90625 5.171875 40.15625 2 
Q 34.421875 -1.171875 27.640625 -1.171875 
Q 16.75 -1.171875 10.03125 5.8125 
Q 3.328125 12.796875 3.328125 25.921875 
z
M 12.359375 25.921875 
Q 12.359375 15.96875 16.703125 11.015625 
Q 21.046875 6.0625 27.640625 6.0625 
Q 34.1875 6.0625 38.53125 11.03125 
Q 42.875 16.015625 42.875 26.21875 
Q 42.875 35.84375 38.5 40.796875 
Q 34.125 45.75 27.640625 45.75 
Q 21.046875 45.75 16.703125 40.8125 
Q 12.359375 35.890625 12.359375 25.921875 
z
" id="ArialMT-111"/>
      <path d="M 8.6875 0 
L 8.6875 45.015625 
L 0.921875 45.015625 
L 0.921875 51.859375 
L 8.6875 51.859375 
L 8.6875 57.375 
Q 8.6875 62.59375 9.625 65.140625 
Q 10.890625 68.5625 14.078125 70.671875 
Q 17.28125 72.796875 23.046875 72.796875 
Q 26.765625 72.796875 31.25 71.921875 
L 29.9375 64.265625 
Q 27.203125 64.75 24.75 64.75 
Q 20.75 64.75 19.09375 63.03125 
Q 17.4375 61.328125 17.4375 56.640625 
L 17.4375 51.859375 
L 27.546875 51.859375 
L 27.546875 45.015625 
L 17.4375 45.015625 
L 17.4375 0 
z
" id="ArialMT-102"/>
      <path d="M 40.4375 19 
L 49.078125 17.875 
Q 47.65625 8.9375 41.8125 3.875 
Q 35.984375 -1.171875 27.484375 -1.171875 
Q 16.84375 -1.171875 10.375 5.78125 
Q 3.90625 12.75 3.90625 25.734375 
Q 3.90625 34.125 6.6875 40.421875 
Q 9.46875 46.734375 15.15625 49.875 
Q 20.84375 53.03125 27.546875 53.03125 
Q 35.984375 53.03125 41.359375 48.75 
Q 46.734375 44.484375 48.25 36.625 
L 39.703125 35.296875 
Q 38.484375 40.53125 35.375 43.15625 
Q 32.28125 45.796875 27.875 45.796875 
Q 21.234375 45.796875 17.078125 41.03125 
Q 12.9375 36.28125 12.9375 25.984375 
Q 12.9375 15.53125 16.9375 10.796875 
Q 20.953125 6.0625 27.390625 6.0625 
Q 32.5625 6.0625 36.03125 9.234375 
Q 39.5 12.40625 40.4375 19 
z
" id="ArialMT-99"/>
      <path d="M 42.09375 16.703125 
L 51.171875 15.578125 
Q 49.03125 7.625 43.21875 3.21875 
Q 37.40625 -1.171875 28.375 -1.171875 
Q 17 -1.171875 10.328125 5.828125 
Q 3.65625 12.84375 3.65625 25.484375 
Q 3.65625 38.578125 10.390625 45.796875 
Q 17.140625 53.03125 27.875 53.03125 
Q 38.28125 53.03125 44.875 45.953125 
Q 51.46875 38.875 51.46875 26.03125 
Q 51.46875 25.25 51.421875 23.6875 
L 12.75 23.6875 
Q 13.234375 15.140625 17.578125 10.59375 
Q 21.921875 6.0625 28.421875 6.0625 
Q 33.25 6.0625 36.671875 8.59375 
Q 40.09375 11.140625 42.09375 16.703125 
z
M 13.234375 30.90625 
L 42.1875 30.90625 
Q 41.609375 37.453125 38.875 40.71875 
Q 34.671875 45.796875 27.984375 45.796875 
Q 21.921875 45.796875 17.796875 41.75 
Q 13.671875 37.703125 13.234375 30.90625 
z
" id="ArialMT-101"/>
      <path d="M 6.59375 0 
L 6.59375 51.859375 
L 14.5 51.859375 
L 14.5 44.484375 
Q 20.21875 53.03125 31 53.03125 
Q 35.6875 53.03125 39.625 51.34375 
Q 43.5625 49.65625 45.515625 46.921875 
Q 47.46875 44.1875 48.25 40.4375 
Q 48.734375 37.984375 48.734375 31.890625 
L 48.734375 0 
L 39.9375 0 
L 39.9375 31.546875 
Q 39.9375 36.921875 38.90625 39.578125 
Q 37.890625 42.234375 35.28125 43.8125 
Q 32.671875 45.40625 29.15625 45.40625 
Q 23.53125 45.40625 19.453125 41.84375 
Q 15.375 38.28125 15.375 28.328125 
L 15.375 0 
z
" id="ArialMT-110"/>
      <path d="M 6.203125 -19.96875 
L 5.21875 -11.71875 
Q 8.109375 -12.5 10.25 -12.5 
Q 13.1875 -12.5 14.9375 -11.515625 
Q 16.703125 -10.546875 17.828125 -8.796875 
Q 18.65625 -7.46875 20.515625 -2.25 
Q 20.75 -1.515625 21.296875 -0.09375 
L 1.609375 51.859375 
L 11.078125 51.859375 
L 21.875 21.828125 
Q 23.96875 16.109375 25.640625 9.8125 
Q 27.15625 15.875 29.25 21.625 
L 40.328125 51.859375 
L 49.125 51.859375 
L 29.390625 -0.875 
Q 26.21875 -9.421875 24.46875 -12.640625 
Q 22.125 -17 19.09375 -19.015625 
Q 16.0625 -21.046875 11.859375 -21.046875 
Q 9.328125 -21.046875 6.203125 -19.96875 
z
" id="ArialMT-121"/>
     </defs>
     <g style="fill:#262626;" transform="translate(18.807656 219.336328)rotate(-90)scale(0.11 -0.11)">
      <use xlink:href="#ArialMT-83"/>
      <use x="66.699219" xlink:href="#ArialMT-107"/>
      <use x="116.699219" xlink:href="#ArialMT-105"/>
      <use x="138.916016" xlink:href="#ArialMT-108"/>
      <use x="161.132812" xlink:href="#ArialMT-108"/>
      <use x="183.349609" xlink:href="#ArialMT-32"/>
      <use x="211.132812" xlink:href="#ArialMT-80"/>
      <use x="277.832031" xlink:href="#ArialMT-114"/>
      <use x="311.132812" xlink:href="#ArialMT-111"/>
      <use x="366.748047" xlink:href="#ArialMT-102"/>
      <use x="394.515625" xlink:href="#ArialMT-102"/>
      <use x="422.298828" xlink:href="#ArialMT-105"/>
      <use x="444.515625" xlink:href="#ArialMT-99"/>
      <use x="494.515625" xlink:href="#ArialMT-105"/>
      <use x="516.732422" xlink:href="#ArialMT-101"/>
      <use x="572.347656" xlink:href="#ArialMT-110"/>
      <use x="627.962891" xlink:href="#ArialMT-99"/>
      <use x="677.962891" xlink:href="#ArialMT-121"/>
     </g>
    </g>
   </g>
   <g id="patch_3">
    <path clip-path="url(#pd61e0f04df)" d="M 107.479943 333.054688 
L 114.159005 333.054688 
L 114.159005 311.307052 
L 107.479943 311.307052 
z
" style="fill:#ee3224;opacity:0.5;"/>
   </g>
   <g id="patch_4">
    <path clip-path="url(#pd61e0f04df)" d="M 140.875251 333.054688 
L 147.554312 333.054688 
L 147.554312 333.054688 
L 140.875251 333.054688 
z
" style="fill:#f78f1e;opacity:0.5;"/>
   </g>
   <g id="patch_5">
    <path clip-path="url(#pd61e0f04df)" d="M 174.270559 333.054688 
L 180.94962 333.054688 
L 180.94962 333.054688 
L 174.270559 333.054688 
z
" style="fill:#ffc222;opacity:0.5;"/>
   </g>
   <g id="patch_6">
    <path clip-path="url(#pd61e0f04df)" d="M 207.665866 333.054688 
L 214.344928 333.054688 
L 214.344928 333.054688 
L 207.665866 333.054688 
z
" style="fill:#ee3224;opacity:0.5;"/>
   </g>
   <g id="patch_7">
    <path clip-path="url(#pd61e0f04df)" d="M 241.061174 333.054688 
L 247.740236 333.054688 
L 247.740236 333.054688 
L 241.061174 333.054688 
z
" style="fill:#f78f1e;opacity:0.5;"/>
   </g>
   <g id="patch_8">
    <path clip-path="url(#pd61e0f04df)" d="M 274.456482 333.054688 
L 281.135543 333.054688 
L 281.135543 323.993173 
L 274.456482 323.993173 
z
" style="fill:#ffc222;opacity:0.5;"/>
   </g>
   <g id="patch_9">
    <path clip-path="url(#pd61e0f04df)" d="M 307.85179 333.054688 
L 314.530851 333.054688 
L 314.530851 333.054688 
L 307.85179 333.054688 
z
" style="fill:#ee3224;opacity:0.5;"/>
   </g>
   <g id="patch_10">
    <path clip-path="url(#pd61e0f04df)" d="M 341.247097 333.054688 
L 347.926159 333.054688 
L 347.926159 323.993173 
L 341.247097 323.993173 
z
" style="fill:#f78f1e;opacity:0.5;"/>
   </g>
   <g id="patch_11">
    <path clip-path="url(#pd61e0f04df)" d="M 374.642405 333.054688 
L 381.321467 333.054688 
L 381.321467 327.617779 
L 374.642405 327.617779 
z
" style="fill:#ffc222;opacity:0.5;"/>
   </g>
   <g id="patch_12">
    <path clip-path="url(#pd61e0f04df)" d="M 408.037713 333.054688 
L 414.716774 333.054688 
L 414.716774 333.054688 
L 408.037713 333.054688 
z
" style="fill:#ee3224;opacity:0.5;"/>
   </g>
   <g id="patch_13">
    <path clip-path="url(#pd61e0f04df)" d="M 441.433021 333.054688 
L 448.112082 333.054688 
L 448.112082 333.054688 
L 441.433021 333.054688 
z
" style="fill:#f78f1e;opacity:0.5;"/>
   </g>
   <g id="patch_14">
    <path clip-path="url(#pd61e0f04df)" d="M 474.828328 333.054688 
L 481.50739 333.054688 
L 481.50739 333.054688 
L 474.828328 333.054688 
z
" style="fill:#ffc222;opacity:0.5;"/>
   </g>
   <g id="patch_15">
    <path clip-path="url(#pd61e0f04df)" d="M 508.223636 333.054688 
L 514.902698 333.054688 
L 514.902698 333.054688 
L 508.223636 333.054688 
z
" style="fill:#ee3224;opacity:0.5;"/>
   </g>
   <g id="patch_16">
    <path clip-path="url(#pd61e0f04df)" d="M 541.618944 333.054688 
L 548.298005 333.054688 
L 548.298005 333.054688 
L 541.618944 333.054688 
z
" style="fill:#f78f1e;opacity:0.5;"/>
   </g>
   <g id="patch_17">
    <path clip-path="url(#pd61e0f04df)" d="M 575.014252 333.054688 
L 581.693313 333.054688 
L 581.693313 333.054688 
L 575.014252 333.054688 
z
" style="fill:#ffc222;opacity:0.5;"/>
   </g>
   <g id="patch_18">
    <path clip-path="url(#pd61e0f04df)" d="M 608.409559 333.054688 
L 615.088621 333.054688 
L 615.088621 333.054688 
L 608.409559 333.054688 
z
" style="fill:#ee3224;opacity:0.5;"/>
   </g>
   <g id="patch_19">
    <path clip-path="url(#pd61e0f04df)" d="M 641.804867 333.054688 
L 648.483929 333.054688 
L 648.483929 333.054688 
L 641.804867 333.054688 
z
" style="fill:#f78f1e;opacity:0.5;"/>
   </g>
   <g id="patch_20">
    <path clip-path="url(#pd61e0f04df)" d="M 675.200175 333.054688 
L 681.879236 333.054688 
L 681.879236 323.993173 
L 675.200175 323.993173 
z
" style="fill:#ffc222;opacity:0.5;"/>
   </g>
   <g id="patch_21">
    <path clip-path="url(#pd61e0f04df)" d="M 708.595483 333.054688 
L 715.274544 333.054688 
L 715.274544 333.054688 
L 708.595483 333.054688 
z
" style="fill:#ee3224;opacity:0.5;"/>
   </g>
   <g id="patch_22">
    <path clip-path="url(#pd61e0f04df)" d="M 741.99079 333.054688 
L 748.669852 333.054688 
L 748.669852 327.617779 
L 741.99079 327.617779 
z
" style="fill:#f78f1e;opacity:0.5;"/>
   </g>
   <g id="patch_23">
    <path clip-path="url(#pd61e0f04df)" d="M 775.386098 333.054688 
L 782.06516 333.054688 
L 782.06516 333.054688 
L 775.386098 333.054688 
z
" style="fill:#ffc222;opacity:0.5;"/>
   </g>
   <g id="patch_24">
    <path clip-path="url(#pd61e0f04df)" d="M 808.781406 333.054688 
L 815.460467 333.054688 
L 815.460467 333.054688 
L 808.781406 333.054688 
z
" style="fill:#ee3224;opacity:0.5;"/>
   </g>
   <g id="patch_25">
    <path clip-path="url(#pd61e0f04df)" d="M 842.176714 333.054688 
L 848.855775 333.054688 
L 848.855775 333.054688 
L 842.176714 333.054688 
z
" style="fill:#f78f1e;opacity:0.5;"/>
   </g>
   <g id="patch_26">
    <path clip-path="url(#pd61e0f04df)" d="M 875.572021 333.054688 
L 882.251083 333.054688 
L 882.251083 251.501055 
L 875.572021 251.501055 
z
" style="fill:#ffc222;opacity:0.5;"/>
   </g>
   <g id="patch_27">
    <path clip-path="url(#pd61e0f04df)" d="M 908.967329 333.054688 
L 915.646391 333.054688 
L 915.646391 327.617779 
L 908.967329 327.617779 
z
" style="fill:#ee3224;opacity:0.5;"/>
   </g>
   <g id="patch_28">
    <path clip-path="url(#pd61e0f04df)" d="M 942.362637 333.054688 
L 949.041698 333.054688 
L 949.041698 323.993173 
L 942.362637 323.993173 
z
" style="fill:#f78f1e;opacity:0.5;"/>
   </g>
   <g id="patch_29">
    <path clip-path="url(#pd61e0f04df)" d="M 975.757944 333.054688 
L 982.437006 333.054688 
L 982.437006 333.054688 
L 975.757944 333.054688 
z
" style="fill:#ffc222;opacity:0.5;"/>
   </g>
   <g id="patch_30">
    <path clip-path="url(#pd61e0f04df)" d="M 1009.153252 333.054688 
L 1015.832314 333.054688 
L 1015.832314 333.054688 
L 1009.153252 333.054688 
z
" style="fill:#ee3224;opacity:0.5;"/>
   </g>
   <g id="patch_31">
    <path clip-path="url(#pd61e0f04df)" d="M 1042.54856 333.054688 
L 1049.227622 333.054688 
L 1049.227622 327.617779 
L 1042.54856 327.617779 
z
" style="fill:#f78f1e;opacity:0.5;"/>
   </g>
   <g id="patch_32">
    <path clip-path="url(#pd61e0f04df)" d="M 1075.943868 333.054688 
L 1082.622929 333.054688 
L 1082.622929 323.993173 
L 1075.943868 323.993173 
z
" style="fill:#ffc222;opacity:0.5;"/>
   </g>
   <g id="patch_33">
    <path clip-path="url(#pd61e0f04df)" d="M 1109.339175 333.054688 
L 1116.018237 333.054688 
L 1116.018237 322.18087 
L 1109.339175 322.18087 
z
" style="fill:#ee3224;opacity:0.5;"/>
   </g>
   <g id="patch_34">
    <path clip-path="url(#pd61e0f04df)" d="M 1142.734483 333.054688 
L 1149.413545 333.054688 
L 1149.413545 333.054688 
L 1142.734483 333.054688 
z
" style="fill:#f78f1e;opacity:0.5;"/>
   </g>
   <g id="patch_35">
    <path clip-path="url(#pd61e0f04df)" d="M 1176.129791 333.054688 
L 1182.808852 333.054688 
L 1182.808852 333.054688 
L 1176.129791 333.054688 
z
" style="fill:#ffc222;opacity:0.5;"/>
   </g>
   <g id="patch_36">
    <path clip-path="url(#pd61e0f04df)" d="M 1209.525099 333.054688 
L 1216.20416 333.054688 
L 1216.20416 333.054688 
L 1209.525099 333.054688 
z
" style="fill:#ee3224;opacity:0.5;"/>
   </g>
   <g id="patch_37">
    <path clip-path="url(#pd61e0f04df)" d="M 1242.920406 333.054688 
L 1249.599468 333.054688 
L 1249.599468 333.054688 
L 1242.920406 333.054688 
z
" style="fill:#f78f1e;opacity:0.5;"/>
   </g>
   <g id="patch_38">
    <path clip-path="url(#pd61e0f04df)" d="M 1276.315714 333.054688 
L 1282.994776 333.054688 
L 1282.994776 333.054688 
L 1276.315714 333.054688 
z
" style="fill:#ffc222;opacity:0.5;"/>
   </g>
   <g id="patch_39">
    <path clip-path="url(#pd61e0f04df)" d="M 1309.711022 333.054688 
L 1316.390083 333.054688 
L 1316.390083 202.568876 
L 1309.711022 202.568876 
z
" style="fill:#ee3224;opacity:0.5;"/>
   </g>
   <g id="patch_40">
    <path clip-path="url(#pd61e0f04df)" d="M 1343.10633 333.054688 
L 1349.785391 333.054688 
L 1349.785391 202.568876 
L 1343.10633 202.568876 
z
" style="fill:#f78f1e;opacity:0.5;"/>
   </g>
   <g id="patch_41">
    <path clip-path="url(#pd61e0f04df)" d="M 1376.501637 333.054688 
L 1383.180699 333.054688 
L 1383.180699 316.743961 
L 1376.501637 316.743961 
z
" style="fill:#ffc222;opacity:0.5;"/>
   </g>
   <g id="patch_42">
    <path clip-path="url(#pd61e0f04df)" d="M 1409.896945 333.054688 
L 1416.576007 333.054688 
L 1416.576007 314.931658 
L 1409.896945 314.931658 
z
" style="fill:#ee3224;opacity:0.5;"/>
   </g>
   <g id="patch_43">
    <path clip-path="url(#pd61e0f04df)" d="M 1443.292253 333.054688 
L 1449.971314 333.054688 
L 1449.971314 333.054688 
L 1443.292253 333.054688 
z
" style="fill:#f78f1e;opacity:0.5;"/>
   </g>
   <g id="patch_44">
    <path clip-path="url(#pd61e0f04df)" d="M 1476.687561 333.054688 
L 1483.366622 333.054688 
L 1483.366622 333.054688 
L 1476.687561 333.054688 
z
" style="fill:#ffc222;opacity:0.5;"/>
   </g>
   <g id="patch_45">
    <path clip-path="url(#pd61e0f04df)" d="M 114.159005 333.054688 
L 120.838066 333.054688 
L 120.838066 327.617779 
L 114.159005 327.617779 
z
" style="fill:#ee3224;opacity:0.5;"/>
   </g>
   <g id="patch_46">
    <path clip-path="url(#pd61e0f04df)" d="M 147.554312 333.054688 
L 154.233374 333.054688 
L 154.233374 305.870143 
L 147.554312 305.870143 
z
" style="fill:#f78f1e;opacity:0.5;"/>
   </g>
   <g id="patch_47">
    <path clip-path="url(#pd61e0f04df)" d="M 180.94962 333.054688 
L 187.628682 333.054688 
L 187.628682 327.617779 
L 180.94962 327.617779 
z
" style="fill:#ffc222;opacity:0.5;"/>
   </g>
   <g id="patch_48">
    <path clip-path="url(#pd61e0f04df)" d="M 214.344928 333.054688 
L 221.02399 333.054688 
L 221.02399 316.743961 
L 214.344928 316.743961 
z
" style="fill:#ee3224;opacity:0.5;"/>
   </g>
   <g id="patch_49">
    <path clip-path="url(#pd61e0f04df)" d="M 247.740236 333.054688 
L 254.419297 333.054688 
L 254.419297 333.054688 
L 247.740236 333.054688 
z
" style="fill:#f78f1e;opacity:0.5;"/>
   </g>
   <g id="patch_50">
    <path clip-path="url(#pd61e0f04df)" d="M 281.135543 333.054688 
L 287.814605 333.054688 
L 287.814605 314.931658 
L 281.135543 314.931658 
z
" style="fill:#ffc222;opacity:0.5;"/>
   </g>
   <g id="patch_51">
    <path clip-path="url(#pd61e0f04df)" d="M 314.530851 333.054688 
L 321.209913 333.054688 
L 321.209913 333.054688 
L 314.530851 333.054688 
z
" style="fill:#ee3224;opacity:0.5;"/>
   </g>
   <g id="patch_52">
    <path clip-path="url(#pd61e0f04df)" d="M 347.926159 333.054688 
L 354.60522 333.054688 
L 354.60522 323.993173 
L 347.926159 323.993173 
z
" style="fill:#f78f1e;opacity:0.5;"/>
   </g>
   <g id="patch_53">
    <path clip-path="url(#pd61e0f04df)" d="M 381.321467 333.054688 
L 388.000528 333.054688 
L 388.000528 308.588598 
L 381.321467 308.588598 
z
" style="fill:#ffc222;opacity:0.5;"/>
   </g>
   <g id="patch_54">
    <path clip-path="url(#pd61e0f04df)" d="M 414.716774 333.054688 
L 421.395836 333.054688 
L 421.395836 333.054688 
L 414.716774 333.054688 
z
" style="fill:#ee3224;opacity:0.5;"/>
   </g>
   <g id="patch_55">
    <path clip-path="url(#pd61e0f04df)" d="M 448.112082 333.054688 
L 454.791144 333.054688 
L 454.791144 311.307052 
L 448.112082 311.307052 
z
" style="fill:#f78f1e;opacity:0.5;"/>
   </g>
   <g id="patch_56">
    <path clip-path="url(#pd61e0f04df)" d="M 481.50739 333.054688 
L 488.186451 333.054688 
L 488.186451 322.18087 
L 481.50739 322.18087 
z
" style="fill:#ffc222;opacity:0.5;"/>
   </g>
   <g id="patch_57">
    <path clip-path="url(#pd61e0f04df)" d="M 514.902698 333.054688 
L 521.581759 333.054688 
L 521.581759 333.054688 
L 514.902698 333.054688 
z
" style="fill:#ee3224;opacity:0.5;"/>
   </g>
   <g id="patch_58">
    <path clip-path="url(#pd61e0f04df)" d="M 548.298005 333.054688 
L 554.977067 333.054688 
L 554.977067 333.054688 
L 548.298005 333.054688 
z
" style="fill:#f78f1e;opacity:0.5;"/>
   </g>
   <g id="patch_59">
    <path clip-path="url(#pd61e0f04df)" d="M 581.693313 333.054688 
L 588.372375 333.054688 
L 588.372375 318.556264 
L 581.693313 318.556264 
z
" style="fill:#ffc222;opacity:0.5;"/>
   </g>
   <g id="patch_60">
    <path clip-path="url(#pd61e0f04df)" d="M 615.088621 333.054688 
L 621.767682 333.054688 
L 621.767682 333.054688 
L 615.088621 333.054688 
z
" style="fill:#ee3224;opacity:0.5;"/>
   </g>
   <g id="patch_61">
    <path clip-path="url(#pd61e0f04df)" d="M 648.483929 333.054688 
L 655.16299 333.054688 
L 655.16299 333.054688 
L 648.483929 333.054688 
z
" style="fill:#f78f1e;opacity:0.5;"/>
   </g>
   <g id="patch_62">
    <path clip-path="url(#pd61e0f04df)" d="M 681.879236 333.054688 
L 688.558298 333.054688 
L 688.558298 305.870143 
L 681.879236 305.870143 
z
" style="fill:#ffc222;opacity:0.5;"/>
   </g>
   <g id="patch_63">
    <path clip-path="url(#pd61e0f04df)" d="M 715.274544 333.054688 
L 721.953606 333.054688 
L 721.953606 333.054688 
L 715.274544 333.054688 
z
" style="fill:#ee3224;opacity:0.5;"/>
   </g>
   <g id="patch_64">
    <path clip-path="url(#pd61e0f04df)" d="M 748.669852 333.054688 
L 755.348913 333.054688 
L 755.348913 333.054688 
L 748.669852 333.054688 
z
" style="fill:#f78f1e;opacity:0.5;"/>
   </g>
   <g id="patch_65">
    <path clip-path="url(#pd61e0f04df)" d="M 782.06516 333.054688 
L 788.744221 333.054688 
L 788.744221 333.054688 
L 782.06516 333.054688 
z
" style="fill:#ffc222;opacity:0.5;"/>
   </g>
   <g id="patch_66">
    <path clip-path="url(#pd61e0f04df)" d="M 815.460467 333.054688 
L 822.139529 333.054688 
L 822.139529 296.808629 
L 815.460467 296.808629 
z
" style="fill:#ee3224;opacity:0.5;"/>
   </g>
   <g id="patch_67">
    <path clip-path="url(#pd61e0f04df)" d="M 848.855775 333.054688 
L 855.534837 333.054688 
L 855.534837 296.808629 
L 848.855775 296.808629 
z
" style="fill:#f78f1e;opacity:0.5;"/>
   </g>
   <g id="patch_68">
    <path clip-path="url(#pd61e0f04df)" d="M 882.251083 333.054688 
L 888.930144 333.054688 
L 888.930144 169.947423 
L 882.251083 169.947423 
z
" style="fill:#ffc222;opacity:0.5;"/>
   </g>
   <g id="patch_69">
    <path clip-path="url(#pd61e0f04df)" d="M 915.646391 333.054688 
L 922.325452 333.054688 
L 922.325452 322.18087 
L 915.646391 322.18087 
z
" style="fill:#ee3224;opacity:0.5;"/>
   </g>
   <g id="patch_70">
    <path clip-path="url(#pd61e0f04df)" d="M 949.041698 333.054688 
L 955.72076 333.054688 
L 955.72076 260.56257 
L 949.041698 260.56257 
z
" style="fill:#f78f1e;opacity:0.5;"/>
   </g>
   <g id="patch_71">
    <path clip-path="url(#pd61e0f04df)" d="M 982.437006 333.054688 
L 989.116068 333.054688 
L 989.116068 333.054688 
L 982.437006 333.054688 
z
" style="fill:#ffc222;opacity:0.5;"/>
   </g>
   <g id="patch_72">
    <path clip-path="url(#pd61e0f04df)" d="M 1015.832314 333.054688 
L 1022.511375 333.054688 
L 1022.511375 333.054688 
L 1015.832314 333.054688 
z
" style="fill:#ee3224;opacity:0.5;"/>
   </g>
   <g id="patch_73">
    <path clip-path="url(#pd61e0f04df)" d="M 1049.227622 333.054688 
L 1055.906683 333.054688 
L 1055.906683 284.122508 
L 1049.227622 284.122508 
z
" style="fill:#f78f1e;opacity:0.5;"/>
   </g>
   <g id="patch_74">
    <path clip-path="url(#pd61e0f04df)" d="M 1082.622929 333.054688 
L 1089.301991 333.054688 
L 1089.301991 278.685599 
L 1082.622929 278.685599 
z
" style="fill:#ffc222;opacity:0.5;"/>
   </g>
   <g id="patch_75">
    <path clip-path="url(#pd61e0f04df)" d="M 1116.018237 333.054688 
L 1122.697299 333.054688 
L 1122.697299 322.18087 
L 1116.018237 322.18087 
z
" style="fill:#ee3224;opacity:0.5;"/>
   </g>
   <g id="patch_76">
    <path clip-path="url(#pd61e0f04df)" d="M 1149.413545 333.054688 
L 1156.092606 333.054688 
L 1156.092606 333.054688 
L 1149.413545 333.054688 
z
" style="fill:#f78f1e;opacity:0.5;"/>
   </g>
   <g id="patch_77">
    <path clip-path="url(#pd61e0f04df)" d="M 1182.808852 333.054688 
L 1189.487914 333.054688 
L 1189.487914 278.685599 
L 1182.808852 278.685599 
z
" style="fill:#ffc222;opacity:0.5;"/>
   </g>
   <g id="patch_78">
    <path clip-path="url(#pd61e0f04df)" d="M 1216.20416 333.054688 
L 1222.883222 333.054688 
L 1222.883222 333.054688 
L 1216.20416 333.054688 
z
" style="fill:#ee3224;opacity:0.5;"/>
   </g>
   <g id="patch_79">
    <path clip-path="url(#pd61e0f04df)" d="M 1249.599468 333.054688 
L 1256.27853 333.054688 
L 1256.27853 323.993173 
L 1249.599468 323.993173 
z
" style="fill:#f78f1e;opacity:0.5;"/>
   </g>
   <g id="patch_80">
    <path clip-path="url(#pd61e0f04df)" d="M 1282.994776 333.054688 
L 1289.673837 333.054688 
L 1289.673837 333.054688 
L 1282.994776 333.054688 
z
" style="fill:#ffc222;opacity:0.5;"/>
   </g>
   <g id="patch_81">
    <path clip-path="url(#pd61e0f04df)" d="M 1316.390083 333.054688 
L 1323.069145 333.054688 
L 1323.069145 275.967145 
L 1316.390083 275.967145 
z
" style="fill:#ee3224;opacity:0.5;"/>
   </g>
   <g id="patch_82">
    <path clip-path="url(#pd61e0f04df)" d="M 1349.785391 333.054688 
L 1356.464453 333.054688 
L 1356.464453 224.316511 
L 1349.785391 224.316511 
z
" style="fill:#f78f1e;opacity:0.5;"/>
   </g>
   <g id="patch_83">
    <path clip-path="url(#pd61e0f04df)" d="M 1383.180699 333.054688 
L 1389.85976 333.054688 
L 1389.85976 316.743961 
L 1383.180699 316.743961 
z
" style="fill:#ffc222;opacity:0.5;"/>
   </g>
   <g id="patch_84">
    <path clip-path="url(#pd61e0f04df)" d="M 1416.576007 333.054688 
L 1423.255068 333.054688 
L 1423.255068 305.870143 
L 1416.576007 305.870143 
z
" style="fill:#ee3224;opacity:0.5;"/>
   </g>
   <g id="patch_85">
    <path clip-path="url(#pd61e0f04df)" d="M 1449.971314 333.054688 
L 1456.650376 333.054688 
L 1456.650376 333.054688 
L 1449.971314 333.054688 
z
" style="fill:#f78f1e;opacity:0.5;"/>
   </g>
   <g id="patch_86">
    <path clip-path="url(#pd61e0f04df)" d="M 1483.366622 333.054688 
L 1490.045684 333.054688 
L 1490.045684 314.931658 
L 1483.366622 314.931658 
z
" style="fill:#ffc222;opacity:0.5;"/>
   </g>
   <g id="patch_87">
    <path clip-path="url(#pd61e0f04df)" d="M 120.838066 333.054688 
L 127.517128 333.054688 
L 127.517128 305.870143 
L 120.838066 305.870143 
z
" style="fill:#ee3224;opacity:0.5;"/>
   </g>
   <g id="patch_88">
    <path clip-path="url(#pd61e0f04df)" d="M 154.233374 333.054688 
L 160.912436 333.054688 
L 160.912436 237.002632 
L 154.233374 237.002632 
z
" style="fill:#f78f1e;opacity:0.5;"/>
   </g>
   <g id="patch_89">
    <path clip-path="url(#pd61e0f04df)" d="M 187.628682 333.054688 
L 194.307743 333.054688 
L 194.307743 322.18087 
L 187.628682 322.18087 
z
" style="fill:#ffc222;opacity:0.5;"/>
   </g>
   <g id="patch_90">
    <path clip-path="url(#pd61e0f04df)" d="M 221.02399 333.054688 
L 227.703051 333.054688 
L 227.703051 276.873296 
L 221.02399 276.873296 
z
" style="fill:#ee3224;opacity:0.5;"/>
   </g>
   <g id="patch_91">
    <path clip-path="url(#pd61e0f04df)" d="M 254.419297 333.054688 
L 261.098359 333.054688 
L 261.098359 316.743961 
L 254.419297 316.743961 
z
" style="fill:#f78f1e;opacity:0.5;"/>
   </g>
   <g id="patch_92">
    <path clip-path="url(#pd61e0f04df)" d="M 287.814605 333.054688 
L 294.493667 333.054688 
L 294.493667 314.931658 
L 287.814605 314.931658 
z
" style="fill:#ffc222;opacity:0.5;"/>
   </g>
   <g id="patch_93">
    <path clip-path="url(#pd61e0f04df)" d="M 321.209913 333.054688 
L 327.888974 333.054688 
L 327.888974 323.993173 
L 321.209913 323.993173 
z
" style="fill:#ee3224;opacity:0.5;"/>
   </g>
   <g id="patch_94">
    <path clip-path="url(#pd61e0f04df)" d="M 354.60522 333.054688 
L 361.284282 333.054688 
L 361.284282 314.931658 
L 354.60522 314.931658 
z
" style="fill:#f78f1e;opacity:0.5;"/>
   </g>
   <g id="patch_95">
    <path clip-path="url(#pd61e0f04df)" d="M 388.000528 333.054688 
L 394.67959 333.054688 
L 394.67959 294.996326 
L 388.000528 294.996326 
z
" style="fill:#ffc222;opacity:0.5;"/>
   </g>
   <g id="patch_96">
    <path clip-path="url(#pd61e0f04df)" d="M 421.395836 333.054688 
L 428.074898 333.054688 
L 428.074898 305.870143 
L 421.395836 305.870143 
z
" style="fill:#ee3224;opacity:0.5;"/>
   </g>
   <g id="patch_97">
    <path clip-path="url(#pd61e0f04df)" d="M 454.791144 333.054688 
L 461.470205 333.054688 
L 461.470205 275.967145 
L 454.791144 275.967145 
z
" style="fill:#f78f1e;opacity:0.5;"/>
   </g>
   <g id="patch_98">
    <path clip-path="url(#pd61e0f04df)" d="M 488.186451 333.054688 
L 494.865513 333.054688 
L 494.865513 308.588598 
L 488.186451 308.588598 
z
" style="fill:#ffc222;opacity:0.5;"/>
   </g>
   <g id="patch_99">
    <path clip-path="url(#pd61e0f04df)" d="M 521.581759 333.054688 
L 528.260821 333.054688 
L 528.260821 333.054688 
L 521.581759 333.054688 
z
" style="fill:#ee3224;opacity:0.5;"/>
   </g>
   <g id="patch_100">
    <path clip-path="url(#pd61e0f04df)" d="M 554.977067 333.054688 
L 561.656128 333.054688 
L 561.656128 333.054688 
L 554.977067 333.054688 
z
" style="fill:#f78f1e;opacity:0.5;"/>
   </g>
   <g id="patch_101">
    <path clip-path="url(#pd61e0f04df)" d="M 588.372375 333.054688 
L 595.051436 333.054688 
L 595.051436 289.559417 
L 588.372375 289.559417 
z
" style="fill:#ffc222;opacity:0.5;"/>
   </g>
   <g id="patch_102">
    <path clip-path="url(#pd61e0f04df)" d="M 621.767682 333.054688 
L 628.446744 333.054688 
L 628.446744 314.931658 
L 621.767682 314.931658 
z
" style="fill:#ee3224;opacity:0.5;"/>
   </g>
   <g id="patch_103">
    <path clip-path="url(#pd61e0f04df)" d="M 655.16299 333.054688 
L 661.842052 333.054688 
L 661.842052 300.433235 
L 655.16299 300.433235 
z
" style="fill:#f78f1e;opacity:0.5;"/>
   </g>
   <g id="patch_104">
    <path clip-path="url(#pd61e0f04df)" d="M 688.558298 333.054688 
L 695.237359 333.054688 
L 695.237359 206.193482 
L 688.558298 206.193482 
z
" style="fill:#ffc222;opacity:0.5;"/>
   </g>
   <g id="patch_105">
    <path clip-path="url(#pd61e0f04df)" d="M 721.953606 333.054688 
L 728.632667 333.054688 
L 728.632667 304.05784 
L 721.953606 304.05784 
z
" style="fill:#ee3224;opacity:0.5;"/>
   </g>
   <g id="patch_106">
    <path clip-path="url(#pd61e0f04df)" d="M 755.348913 333.054688 
L 762.027975 333.054688 
L 762.027975 311.307052 
L 755.348913 311.307052 
z
" style="fill:#f78f1e;opacity:0.5;"/>
   </g>
   <g id="patch_107">
    <path clip-path="url(#pd61e0f04df)" d="M 788.744221 333.054688 
L 795.423283 333.054688 
L 795.423283 323.993173 
L 788.744221 323.993173 
z
" style="fill:#ffc222;opacity:0.5;"/>
   </g>
   <g id="patch_108">
    <path clip-path="url(#pd61e0f04df)" d="M 822.139529 333.054688 
L 828.81859 333.054688 
L 828.81859 278.685599 
L 822.139529 278.685599 
z
" style="fill:#ee3224;opacity:0.5;"/>
   </g>
   <g id="patch_109">
    <path clip-path="url(#pd61e0f04df)" d="M 855.534837 333.054688 
L 862.213898 333.054688 
L 862.213898 242.439541 
L 855.534837 242.439541 
z
" style="fill:#f78f1e;opacity:0.5;"/>
   </g>
   <g id="patch_110">
    <path clip-path="url(#pd61e0f04df)" d="M 888.930144 333.054688 
L 895.609206 333.054688 
L 895.609206 251.501055 
L 888.930144 251.501055 
z
" style="fill:#ffc222;opacity:0.5;"/>
   </g>
   <g id="patch_111">
    <path clip-path="url(#pd61e0f04df)" d="M 922.325452 333.054688 
L 929.004514 333.054688 
L 929.004514 285.934811 
L 922.325452 285.934811 
z
" style="fill:#ee3224;opacity:0.5;"/>
   </g>
   <g id="patch_112">
    <path clip-path="url(#pd61e0f04df)" d="M 955.72076 333.054688 
L 962.399821 333.054688 
L 962.399821 197.131967 
L 955.72076 197.131967 
z
" style="fill:#f78f1e;opacity:0.5;"/>
   </g>
   <g id="patch_113">
    <path clip-path="url(#pd61e0f04df)" d="M 989.116068 333.054688 
L 995.795129 333.054688 
L 995.795129 333.054688 
L 989.116068 333.054688 
z
" style="fill:#ffc222;opacity:0.5;"/>
   </g>
   <g id="patch_114">
    <path clip-path="url(#pd61e0f04df)" d="M 1022.511375 333.054688 
L 1029.190437 333.054688 
L 1029.190437 327.617779 
L 1022.511375 327.617779 
z
" style="fill:#ee3224;opacity:0.5;"/>
   </g>
   <g id="patch_115">
    <path clip-path="url(#pd61e0f04df)" d="M 1055.906683 333.054688 
L 1062.585745 333.054688 
L 1062.585745 300.433235 
L 1055.906683 300.433235 
z
" style="fill:#f78f1e;opacity:0.5;"/>
   </g>
   <g id="patch_116">
    <path clip-path="url(#pd61e0f04df)" d="M 1089.301991 333.054688 
L 1095.981052 333.054688 
L 1095.981052 278.685599 
L 1089.301991 278.685599 
z
" style="fill:#ffc222;opacity:0.5;"/>
   </g>
   <g id="patch_117">
    <path clip-path="url(#pd61e0f04df)" d="M 1122.697299 333.054688 
L 1129.37636 333.054688 
L 1129.37636 289.559417 
L 1122.697299 289.559417 
z
" style="fill:#ee3224;opacity:0.5;"/>
   </g>
   <g id="patch_118">
    <path clip-path="url(#pd61e0f04df)" d="M 1156.092606 333.054688 
L 1162.771668 333.054688 
L 1162.771668 314.931658 
L 1156.092606 314.931658 
z
" style="fill:#f78f1e;opacity:0.5;"/>
   </g>
   <g id="patch_119">
    <path clip-path="url(#pd61e0f04df)" d="M 1189.487914 333.054688 
L 1196.166976 333.054688 
L 1196.166976 233.378026 
L 1189.487914 233.378026 
z
" style="fill:#ffc222;opacity:0.5;"/>
   </g>
   <g id="patch_120">
    <path clip-path="url(#pd61e0f04df)" d="M 1222.883222 333.054688 
L 1229.562283 333.054688 
L 1229.562283 333.054688 
L 1222.883222 333.054688 
z
" style="fill:#ee3224;opacity:0.5;"/>
   </g>
   <g id="patch_121">
    <path clip-path="url(#pd61e0f04df)" d="M 1256.27853 333.054688 
L 1262.957591 333.054688 
L 1262.957591 305.870143 
L 1256.27853 305.870143 
z
" style="fill:#f78f1e;opacity:0.5;"/>
   </g>
   <g id="patch_122">
    <path clip-path="url(#pd61e0f04df)" d="M 1289.673837 333.054688 
L 1296.352899 333.054688 
L 1296.352899 333.054688 
L 1289.673837 333.054688 
z
" style="fill:#ffc222;opacity:0.5;"/>
   </g>
   <g id="patch_123">
    <path clip-path="url(#pd61e0f04df)" d="M 1323.069145 333.054688 
L 1329.748207 333.054688 
L 1329.748207 235.190329 
L 1323.069145 235.190329 
z
" style="fill:#ee3224;opacity:0.5;"/>
   </g>
   <g id="patch_124">
    <path clip-path="url(#pd61e0f04df)" d="M 1356.464453 333.054688 
L 1363.143514 333.054688 
L 1363.143514 169.947423 
L 1356.464453 169.947423 
z
" style="fill:#f78f1e;opacity:0.5;"/>
   </g>
   <g id="patch_125">
    <path clip-path="url(#pd61e0f04df)" d="M 1389.85976 333.054688 
L 1396.538822 333.054688 
L 1396.538822 240.627238 
L 1389.85976 240.627238 
z
" style="fill:#ffc222;opacity:0.5;"/>
   </g>
   <g id="patch_126">
    <path clip-path="url(#pd61e0f04df)" d="M 1423.255068 333.054688 
L 1429.93413 333.054688 
L 1429.93413 242.439541 
L 1423.255068 242.439541 
z
" style="fill:#ee3224;opacity:0.5;"/>
   </g>
   <g id="patch_127">
    <path clip-path="url(#pd61e0f04df)" d="M 1456.650376 333.054688 
L 1463.329438 333.054688 
L 1463.329438 314.931658 
L 1456.650376 314.931658 
z
" style="fill:#f78f1e;opacity:0.5;"/>
   </g>
   <g id="patch_128">
    <path clip-path="url(#pd61e0f04df)" d="M 1490.045684 333.054688 
L 1496.724745 333.054688 
L 1496.724745 269.624085 
L 1490.045684 269.624085 
z
" style="fill:#ffc222;opacity:0.5;"/>
   </g>
   <g id="patch_129">
    <path clip-path="url(#pd61e0f04df)" d="M 127.517128 333.054688 
L 134.196189 333.054688 
L 134.196189 280.860363 
L 127.517128 280.860363 
z
" style="fill:#ee3224;opacity:0.5;"/>
   </g>
   <g id="patch_130">
    <path clip-path="url(#pd61e0f04df)" d="M 160.912436 333.054688 
L 167.591497 333.054688 
L 167.591497 196.769507 
L 160.912436 196.769507 
z
" style="fill:#f78f1e;opacity:0.5;"/>
   </g>
   <g id="patch_131">
    <path clip-path="url(#pd61e0f04df)" d="M 194.307743 333.054688 
L 200.986805 333.054688 
L 200.986805 306.957525 
L 194.307743 306.957525 
z
" style="fill:#ffc222;opacity:0.5;"/>
   </g>
   <g id="patch_132">
    <path clip-path="url(#pd61e0f04df)" d="M 227.703051 333.054688 
L 234.382113 333.054688 
L 234.382113 225.766354 
L 227.703051 225.766354 
z
" style="fill:#ee3224;opacity:0.5;"/>
   </g>
   <g id="patch_133">
    <path clip-path="url(#pd61e0f04df)" d="M 261.098359 333.054688 
L 267.77742 333.054688 
L 267.77742 266.361939 
L 261.098359 266.361939 
z
" style="fill:#f78f1e;opacity:0.5;"/>
   </g>
   <g id="patch_134">
    <path clip-path="url(#pd61e0f04df)" d="M 294.493667 333.054688 
L 301.172728 333.054688 
L 301.172728 318.556264 
L 294.493667 318.556264 
z
" style="fill:#ffc222;opacity:0.5;"/>
   </g>
   <g id="patch_135">
    <path clip-path="url(#pd61e0f04df)" d="M 327.888974 333.054688 
L 334.568036 333.054688 
L 334.568036 318.556264 
L 327.888974 318.556264 
z
" style="fill:#ee3224;opacity:0.5;"/>
   </g>
   <g id="patch_136">
    <path clip-path="url(#pd61e0f04df)" d="M 361.284282 333.054688 
L 367.963344 333.054688 
L 367.963344 304.05784 
L 361.284282 304.05784 
z
" style="fill:#f78f1e;opacity:0.5;"/>
   </g>
   <g id="patch_137">
    <path clip-path="url(#pd61e0f04df)" d="M 394.67959 333.054688 
L 401.358651 333.054688 
L 401.358651 217.067299 
L 394.67959 217.067299 
z
" style="fill:#ffc222;opacity:0.5;"/>
   </g>
   <g id="patch_138">
    <path clip-path="url(#pd61e0f04df)" d="M 428.074898 333.054688 
L 434.753959 333.054688 
L 434.753959 167.77266 
L 428.074898 167.77266 
z
" style="fill:#ee3224;opacity:0.5;"/>
   </g>
   <g id="patch_139">
    <path clip-path="url(#pd61e0f04df)" d="M 461.470205 333.054688 
L 468.149267 333.054688 
L 468.149267 225.766354 
L 461.470205 225.766354 
z
" style="fill:#f78f1e;opacity:0.5;"/>
   </g>
   <g id="patch_140">
    <path clip-path="url(#pd61e0f04df)" d="M 494.865513 333.054688 
L 501.544575 333.054688 
L 501.544575 196.769507 
L 494.865513 196.769507 
z
" style="fill:#ffc222;opacity:0.5;"/>
   </g>
   <g id="patch_141">
    <path clip-path="url(#pd61e0f04df)" d="M 528.260821 333.054688 
L 534.939882 333.054688 
L 534.939882 246.064146 
L 528.260821 246.064146 
z
" style="fill:#ee3224;opacity:0.5;"/>
   </g>
   <g id="patch_142">
    <path clip-path="url(#pd61e0f04df)" d="M 561.656128 333.054688 
L 568.33519 333.054688 
L 568.33519 275.060993 
L 561.656128 275.060993 
z
" style="fill:#f78f1e;opacity:0.5;"/>
   </g>
   <g id="patch_143">
    <path clip-path="url(#pd61e0f04df)" d="M 595.051436 333.054688 
L 601.730498 333.054688 
L 601.730498 286.659732 
L 595.051436 286.659732 
z
" style="fill:#ffc222;opacity:0.5;"/>
   </g>
   <g id="patch_144">
    <path clip-path="url(#pd61e0f04df)" d="M 628.446744 333.054688 
L 635.125806 333.054688 
L 635.125806 304.05784 
L 628.446744 304.05784 
z
" style="fill:#ee3224;opacity:0.5;"/>
   </g>
   <g id="patch_145">
    <path clip-path="url(#pd61e0f04df)" d="M 661.842052 333.054688 
L 668.521113 333.054688 
L 668.521113 298.258471 
L 661.842052 298.258471 
z
" style="fill:#f78f1e;opacity:0.5;"/>
   </g>
   <g id="patch_146">
    <path clip-path="url(#pd61e0f04df)" d="M 695.237359 333.054688 
L 701.916421 333.054688 
L 701.916421 144.575182 
L 695.237359 144.575182 
z
" style="fill:#ffc222;opacity:0.5;"/>
   </g>
   <g id="patch_147">
    <path clip-path="url(#pd61e0f04df)" d="M 728.632667 333.054688 
L 735.311729 333.054688 
L 735.311729 304.05784 
L 728.632667 304.05784 
z
" style="fill:#ee3224;opacity:0.5;"/>
   </g>
   <g id="patch_148">
    <path clip-path="url(#pd61e0f04df)" d="M 762.027975 333.054688 
L 768.707036 333.054688 
L 768.707036 280.860363 
L 762.027975 280.860363 
z
" style="fill:#f78f1e;opacity:0.5;"/>
   </g>
   <g id="patch_149">
    <path clip-path="url(#pd61e0f04df)" d="M 795.423283 333.054688 
L 802.102344 333.054688 
L 802.102344 333.054688 
L 795.423283 333.054688 
z
" style="fill:#ffc222;opacity:0.5;"/>
   </g>
   <g id="patch_150">
    <path clip-path="url(#pd61e0f04df)" d="M 828.81859 333.054688 
L 835.497652 333.054688 
L 835.497652 217.067299 
L 828.81859 217.067299 
z
" style="fill:#ee3224;opacity:0.5;"/>
   </g>
   <g id="patch_151">
    <path clip-path="url(#pd61e0f04df)" d="M 862.213898 333.054688 
L 868.89296 333.054688 
L 868.89296 246.064146 
L 862.213898 246.064146 
z
" style="fill:#f78f1e;opacity:0.5;"/>
   </g>
   <g id="patch_152">
    <path clip-path="url(#pd61e0f04df)" d="M 895.609206 333.054688 
L 902.288267 333.054688 
L 902.288267 159.073605 
L 895.609206 159.073605 
z
" style="fill:#ffc222;opacity:0.5;"/>
   </g>
   <g id="patch_153">
    <path clip-path="url(#pd61e0f04df)" d="M 929.004514 333.054688 
L 935.683575 333.054688 
L 935.683575 306.957525 
L 929.004514 306.957525 
z
" style="fill:#ee3224;opacity:0.5;"/>
   </g>
   <g id="patch_154">
    <path clip-path="url(#pd61e0f04df)" d="M 962.399821 333.054688 
L 969.078883 333.054688 
L 969.078883 101.079911 
L 962.399821 101.079911 
z
" style="fill:#f78f1e;opacity:0.5;"/>
   </g>
   <g id="patch_155">
    <path clip-path="url(#pd61e0f04df)" d="M 995.795129 333.054688 
L 1002.474191 333.054688 
L 1002.474191 318.556264 
L 995.795129 318.556264 
z
" style="fill:#ffc222;opacity:0.5;"/>
   </g>
   <g id="patch_156">
    <path clip-path="url(#pd61e0f04df)" d="M 1029.190437 333.054688 
L 1035.869498 333.054688 
L 1035.869498 276.510836 
L 1029.190437 276.510836 
z
" style="fill:#ee3224;opacity:0.5;"/>
   </g>
   <g id="patch_157">
    <path clip-path="url(#pd61e0f04df)" d="M 1062.585745 333.054688 
L 1069.264806 333.054688 
L 1069.264806 193.869822 
L 1062.585745 193.869822 
z
" style="fill:#f78f1e;opacity:0.5;"/>
   </g>
   <g id="patch_158">
    <path clip-path="url(#pd61e0f04df)" d="M 1095.981052 333.054688 
L 1102.660114 333.054688 
L 1102.660114 289.559417 
L 1095.981052 289.559417 
z
" style="fill:#ffc222;opacity:0.5;"/>
   </g>
   <g id="patch_159">
    <path clip-path="url(#pd61e0f04df)" d="M 1129.37636 333.054688 
L 1136.055422 333.054688 
L 1136.055422 228.666038 
L 1129.37636 228.666038 
z
" style="fill:#ee3224;opacity:0.5;"/>
   </g>
   <g id="patch_160">
    <path clip-path="url(#pd61e0f04df)" d="M 1162.771668 333.054688 
L 1169.450729 333.054688 
L 1169.450729 333.054688 
L 1162.771668 333.054688 
z
" style="fill:#f78f1e;opacity:0.5;"/>
   </g>
   <g id="patch_161">
    <path clip-path="url(#pd61e0f04df)" d="M 1196.166976 333.054688 
L 1202.846037 333.054688 
L 1202.846037 275.060993 
L 1196.166976 275.060993 
z
" style="fill:#ffc222;opacity:0.5;"/>
   </g>
   <g id="patch_162">
    <path clip-path="url(#pd61e0f04df)" d="M 1229.562283 333.054688 
L 1236.241345 333.054688 
L 1236.241345 304.05784 
L 1229.562283 304.05784 
z
" style="fill:#ee3224;opacity:0.5;"/>
   </g>
   <g id="patch_163">
    <path clip-path="url(#pd61e0f04df)" d="M 1262.957591 333.054688 
L 1269.636653 333.054688 
L 1269.636653 275.060993 
L 1262.957591 275.060993 
z
" style="fill:#f78f1e;opacity:0.5;"/>
   </g>
   <g id="patch_164">
    <path clip-path="url(#pd61e0f04df)" d="M 1296.352899 333.054688 
L 1303.03196 333.054688 
L 1303.03196 304.05784 
L 1296.352899 304.05784 
z
" style="fill:#ffc222;opacity:0.5;"/>
   </g>
   <g id="patch_165">
    <path clip-path="url(#pd61e0f04df)" d="M 1329.748207 333.054688 
L 1336.427268 333.054688 
L 1336.427268 40.186533 
L 1329.748207 40.186533 
z
" style="fill:#ee3224;opacity:0.5;"/>
   </g>
   <g id="patch_166">
    <path clip-path="url(#pd61e0f04df)" d="M 1363.143514 333.054688 
L 1369.822576 333.054688 
L 1369.822576 150.374551 
L 1363.143514 150.374551 
z
" style="fill:#f78f1e;opacity:0.5;"/>
   </g>
   <g id="patch_167">
    <path clip-path="url(#pd61e0f04df)" d="M 1396.538822 333.054688 
L 1403.217884 333.054688 
L 1403.217884 260.56257 
L 1396.538822 260.56257 
z
" style="fill:#ffc222;opacity:0.5;"/>
   </g>
   <g id="patch_168">
    <path clip-path="url(#pd61e0f04df)" d="M 1429.93413 333.054688 
L 1436.613191 333.054688 
L 1436.613191 217.067299 
L 1429.93413 217.067299 
z
" style="fill:#ee3224;opacity:0.5;"/>
   </g>
   <g id="patch_169">
    <path clip-path="url(#pd61e0f04df)" d="M 1463.329438 333.054688 
L 1470.008499 333.054688 
L 1470.008499 231.565723 
L 1463.329438 231.565723 
z
" style="fill:#f78f1e;opacity:0.5;"/>
   </g>
   <g id="patch_170">
    <path clip-path="url(#pd61e0f04df)" d="M 1496.724745 333.054688 
L 1503.403807 333.054688 
L 1503.403807 115.578335 
L 1496.724745 115.578335 
z
" style="fill:#ffc222;opacity:0.5;"/>
   </g>
   <g id="patch_171">
    <path d="M 37.68375 333.054688 
L 37.68375 25.543125 
" style="fill:none;"/>
   </g>
   <g id="patch_172">
    <path d="M 1573.2 333.054688 
L 1573.2 25.543125 
" style="fill:none;"/>
   </g>
   <g id="patch_173">
    <path d="M 37.68375 333.054688 
L 1573.2 333.054688 
" style="fill:none;"/>
   </g>
   <g id="patch_174">
    <path d="M 37.68375 25.543125 
L 1573.2 25.543125 
" style="fill:none;"/>
   </g>
   <g id="text_53">
    <!-- Overall Skill Profficiency for all Projects Averaged over each Year. Years 1-4.   -->
    <defs>
     <path d="M 4.828125 34.859375 
Q 4.828125 52.6875 14.390625 62.765625 
Q 23.96875 72.859375 39.109375 72.859375 
Q 49.03125 72.859375 56.984375 68.109375 
Q 64.9375 63.375 69.109375 54.90625 
Q 73.296875 46.4375 73.296875 35.6875 
Q 73.296875 24.8125 68.890625 16.21875 
Q 64.5 7.625 56.4375 3.203125 
Q 48.390625 -1.21875 39.0625 -1.21875 
Q 28.953125 -1.21875 20.984375 3.65625 
Q 13.03125 8.546875 8.921875 16.984375 
Q 4.828125 25.4375 4.828125 34.859375 
z
M 14.59375 34.71875 
Q 14.59375 21.78125 21.546875 14.328125 
Q 28.515625 6.890625 39.015625 6.890625 
Q 49.703125 6.890625 56.609375 14.40625 
Q 63.53125 21.921875 63.53125 35.75 
Q 63.53125 44.484375 60.578125 51 
Q 57.625 57.515625 51.921875 61.109375 
Q 46.234375 64.703125 39.15625 64.703125 
Q 29.109375 64.703125 21.84375 57.78125 
Q 14.59375 50.875 14.59375 34.71875 
z
" id="ArialMT-79"/>
     <path d="M 21 0 
L 1.265625 51.859375 
L 10.546875 51.859375 
L 21.6875 20.796875 
Q 23.484375 15.765625 25 10.359375 
Q 26.171875 14.453125 28.265625 20.21875 
L 39.796875 51.859375 
L 48.828125 51.859375 
L 29.203125 0 
z
" id="ArialMT-118"/>
     <path d="M 40.4375 6.390625 
Q 35.546875 2.25 31.03125 0.53125 
Q 26.515625 -1.171875 21.34375 -1.171875 
Q 12.796875 -1.171875 8.203125 3 
Q 3.609375 7.171875 3.609375 13.671875 
Q 3.609375 17.484375 5.34375 20.625 
Q 7.078125 23.78125 9.890625 25.6875 
Q 12.703125 27.59375 16.21875 28.5625 
Q 18.796875 29.25 24.03125 29.890625 
Q 34.671875 31.15625 39.703125 32.90625 
Q 39.75 34.71875 39.75 35.203125 
Q 39.75 40.578125 37.25 42.78125 
Q 33.890625 45.75 27.25 45.75 
Q 21.046875 45.75 18.09375 43.578125 
Q 15.140625 41.40625 13.71875 35.890625 
L 5.125 37.0625 
Q 6.296875 42.578125 8.984375 45.96875 
Q 11.671875 49.359375 16.75 51.1875 
Q 21.828125 53.03125 28.515625 53.03125 
Q 35.15625 53.03125 39.296875 51.46875 
Q 43.453125 49.90625 45.40625 47.53125 
Q 47.359375 45.171875 48.140625 41.546875 
Q 48.578125 39.3125 48.578125 33.453125 
L 48.578125 21.734375 
Q 48.578125 9.46875 49.140625 6.21875 
Q 49.703125 2.984375 51.375 0 
L 42.1875 0 
Q 40.828125 2.734375 40.4375 6.390625 
z
M 39.703125 26.03125 
Q 34.90625 24.078125 25.34375 22.703125 
Q 19.921875 21.921875 17.671875 20.9375 
Q 15.4375 19.96875 14.203125 18.09375 
Q 12.984375 16.21875 12.984375 13.921875 
Q 12.984375 10.40625 15.640625 8.0625 
Q 18.3125 5.71875 23.4375 5.71875 
Q 28.515625 5.71875 32.46875 7.9375 
Q 36.421875 10.15625 38.28125 14.015625 
Q 39.703125 17 39.703125 22.796875 
z
" id="ArialMT-97"/>
     <path d="M 6.546875 61.375 
L 6.546875 71.578125 
L 15.328125 71.578125 
L 15.328125 61.375 
z
M -4.59375 -20.125 
L -2.9375 -12.640625 
Q -0.296875 -13.328125 1.21875 -13.328125 
Q 3.90625 -13.328125 5.21875 -11.546875 
Q 6.546875 -9.765625 6.546875 -2.640625 
L 6.546875 51.859375 
L 15.328125 51.859375 
L 15.328125 -2.828125 
Q 15.328125 -12.40625 12.84375 -16.15625 
Q 9.671875 -21.046875 2.296875 -21.046875 
Q -1.265625 -21.046875 -4.59375 -20.125 
z
" id="ArialMT-106"/>
     <path d="M 25.78125 7.859375 
L 27.046875 0.09375 
Q 23.34375 -0.6875 20.40625 -0.6875 
Q 15.625 -0.6875 12.984375 0.828125 
Q 10.359375 2.34375 9.28125 4.8125 
Q 8.203125 7.28125 8.203125 15.1875 
L 8.203125 45.015625 
L 1.765625 45.015625 
L 1.765625 51.859375 
L 8.203125 51.859375 
L 8.203125 64.703125 
L 16.9375 69.96875 
L 16.9375 51.859375 
L 25.78125 51.859375 
L 25.78125 45.015625 
L 16.9375 45.015625 
L 16.9375 14.703125 
Q 16.9375 10.9375 17.40625 9.859375 
Q 17.875 8.796875 18.921875 8.15625 
Q 19.96875 7.515625 21.921875 7.515625 
Q 23.390625 7.515625 25.78125 7.859375 
z
" id="ArialMT-116"/>
     <path d="M 3.078125 15.484375 
L 11.765625 16.84375 
Q 12.5 11.625 15.84375 8.84375 
Q 19.1875 6.0625 25.203125 6.0625 
Q 31.25 6.0625 34.171875 8.515625 
Q 37.109375 10.984375 37.109375 14.3125 
Q 37.109375 17.28125 34.515625 19 
Q 32.71875 20.171875 25.53125 21.96875 
Q 15.875 24.421875 12.140625 26.203125 
Q 8.40625 27.984375 6.46875 31.125 
Q 4.546875 34.28125 4.546875 38.09375 
Q 4.546875 41.546875 6.125 44.5 
Q 7.71875 47.46875 10.453125 49.421875 
Q 12.5 50.921875 16.03125 51.96875 
Q 19.578125 53.03125 23.640625 53.03125 
Q 29.734375 53.03125 34.34375 51.265625 
Q 38.96875 49.515625 41.15625 46.5 
Q 43.359375 43.5 44.1875 38.484375 
L 35.59375 37.3125 
Q 35.015625 41.3125 32.203125 43.546875 
Q 29.390625 45.796875 24.265625 45.796875 
Q 18.21875 45.796875 15.625 43.796875 
Q 13.03125 41.796875 13.03125 39.109375 
Q 13.03125 37.40625 14.109375 36.03125 
Q 15.1875 34.625 17.484375 33.6875 
Q 18.796875 33.203125 25.25 31.453125 
Q 34.578125 28.953125 38.25 27.359375 
Q 41.9375 25.78125 44.03125 22.75 
Q 46.140625 19.734375 46.140625 15.234375 
Q 46.140625 10.84375 43.578125 6.953125 
Q 41.015625 3.078125 36.171875 0.953125 
Q 31.34375 -1.171875 25.25 -1.171875 
Q 15.140625 -1.171875 9.84375 3.03125 
Q 4.546875 7.234375 3.078125 15.484375 
z
" id="ArialMT-115"/>
     <path d="M 4.984375 -4.296875 
L 13.53125 -5.5625 
Q 14.0625 -9.515625 16.5 -11.328125 
Q 19.78125 -13.765625 25.4375 -13.765625 
Q 31.546875 -13.765625 34.859375 -11.328125 
Q 38.1875 -8.890625 39.359375 -4.5 
Q 40.046875 -1.8125 39.984375 6.78125 
Q 34.234375 0 25.640625 0 
Q 14.9375 0 9.078125 7.71875 
Q 3.21875 15.4375 3.21875 26.21875 
Q 3.21875 33.640625 5.90625 39.90625 
Q 8.59375 46.1875 13.6875 49.609375 
Q 18.796875 53.03125 25.6875 53.03125 
Q 34.859375 53.03125 40.828125 45.609375 
L 40.828125 51.859375 
L 48.921875 51.859375 
L 48.921875 7.03125 
Q 48.921875 -5.078125 46.453125 -10.125 
Q 44 -15.1875 38.640625 -18.109375 
Q 33.296875 -21.046875 25.484375 -21.046875 
Q 16.21875 -21.046875 10.5 -16.875 
Q 4.78125 -12.703125 4.984375 -4.296875 
z
M 12.25 26.859375 
Q 12.25 16.65625 16.296875 11.96875 
Q 20.359375 7.28125 26.46875 7.28125 
Q 32.515625 7.28125 36.609375 11.9375 
Q 40.71875 16.609375 40.71875 26.5625 
Q 40.71875 36.078125 36.5 40.90625 
Q 32.28125 45.75 26.3125 45.75 
Q 20.453125 45.75 16.34375 40.984375 
Q 12.25 36.234375 12.25 26.859375 
z
" id="ArialMT-103"/>
     <path d="M 40.234375 0 
L 40.234375 6.546875 
Q 35.296875 -1.171875 25.734375 -1.171875 
Q 19.53125 -1.171875 14.328125 2.25 
Q 9.125 5.671875 6.265625 11.796875 
Q 3.421875 17.921875 3.421875 25.875 
Q 3.421875 33.640625 6 39.96875 
Q 8.59375 46.296875 13.765625 49.65625 
Q 18.953125 53.03125 25.34375 53.03125 
Q 30.03125 53.03125 33.6875 51.046875 
Q 37.359375 49.078125 39.65625 45.90625 
L 39.65625 71.578125 
L 48.390625 71.578125 
L 48.390625 0 
z
M 12.453125 25.875 
Q 12.453125 15.921875 16.640625 10.984375 
Q 20.84375 6.0625 26.5625 6.0625 
Q 32.328125 6.0625 36.34375 10.765625 
Q 40.375 15.484375 40.375 25.140625 
Q 40.375 35.796875 36.265625 40.765625 
Q 32.171875 45.75 26.171875 45.75 
Q 20.3125 45.75 16.375 40.96875 
Q 12.453125 36.1875 12.453125 25.875 
z
" id="ArialMT-100"/>
     <path d="M 6.59375 0 
L 6.59375 71.578125 
L 15.375 71.578125 
L 15.375 45.90625 
Q 21.53125 53.03125 30.90625 53.03125 
Q 36.671875 53.03125 40.921875 50.75 
Q 45.171875 48.484375 47 44.484375 
Q 48.828125 40.484375 48.828125 32.859375 
L 48.828125 0 
L 40.046875 0 
L 40.046875 32.859375 
Q 40.046875 39.453125 37.1875 42.453125 
Q 34.328125 45.453125 29.109375 45.453125 
Q 25.203125 45.453125 21.75 43.421875 
Q 18.3125 41.40625 16.84375 37.9375 
Q 15.375 34.46875 15.375 28.375 
L 15.375 0 
z
" id="ArialMT-104"/>
     <path d="M 27.875 0 
L 27.875 30.328125 
L 0.296875 71.578125 
L 11.8125 71.578125 
L 25.921875 50 
Q 29.828125 43.953125 33.203125 37.890625 
Q 36.421875 43.5 41.015625 50.53125 
L 54.890625 71.578125 
L 65.921875 71.578125 
L 37.359375 30.328125 
L 37.359375 0 
z
" id="ArialMT-89"/>
     <path d="M 9.078125 0 
L 9.078125 10.015625 
L 19.09375 10.015625 
L 19.09375 0 
z
" id="ArialMT-46"/>
     <path d="M 3.171875 21.484375 
L 3.171875 30.328125 
L 30.171875 30.328125 
L 30.171875 21.484375 
z
" id="ArialMT-45"/>
    </defs>
    <g style="fill:#262626;" transform="translate(597.395625 19.543125)scale(0.12 -0.12)">
     <use xlink:href="#ArialMT-79"/>
     <use x="77.783203" xlink:href="#ArialMT-118"/>
     <use x="127.783203" xlink:href="#ArialMT-101"/>
     <use x="183.398438" xlink:href="#ArialMT-114"/>
     <use x="216.699219" xlink:href="#ArialMT-97"/>
     <use x="272.314453" xlink:href="#ArialMT-108"/>
     <use x="294.53125" xlink:href="#ArialMT-108"/>
     <use x="316.748047" xlink:href="#ArialMT-32"/>
     <use x="344.53125" xlink:href="#ArialMT-83"/>
     <use x="411.230469" xlink:href="#ArialMT-107"/>
     <use x="461.230469" xlink:href="#ArialMT-105"/>
     <use x="483.447266" xlink:href="#ArialMT-108"/>
     <use x="505.664062" xlink:href="#ArialMT-108"/>
     <use x="527.880859" xlink:href="#ArialMT-32"/>
     <use x="555.664062" xlink:href="#ArialMT-80"/>
     <use x="622.363281" xlink:href="#ArialMT-114"/>
     <use x="655.664062" xlink:href="#ArialMT-111"/>
     <use x="711.279297" xlink:href="#ArialMT-102"/>
     <use x="739.046875" xlink:href="#ArialMT-102"/>
     <use x="766.830078" xlink:href="#ArialMT-105"/>
     <use x="789.046875" xlink:href="#ArialMT-99"/>
     <use x="839.046875" xlink:href="#ArialMT-105"/>
     <use x="861.263672" xlink:href="#ArialMT-101"/>
     <use x="916.878906" xlink:href="#ArialMT-110"/>
     <use x="972.494141" xlink:href="#ArialMT-99"/>
     <use x="1022.494141" xlink:href="#ArialMT-121"/>
     <use x="1072.494141" xlink:href="#ArialMT-32"/>
     <use x="1100.277344" xlink:href="#ArialMT-102"/>
     <use x="1128.060547" xlink:href="#ArialMT-111"/>
     <use x="1183.675781" xlink:href="#ArialMT-114"/>
     <use x="1216.976562" xlink:href="#ArialMT-32"/>
     <use x="1244.759766" xlink:href="#ArialMT-97"/>
     <use x="1300.375" xlink:href="#ArialMT-108"/>
     <use x="1322.591797" xlink:href="#ArialMT-108"/>
     <use x="1344.808594" xlink:href="#ArialMT-32"/>
     <use x="1372.591797" xlink:href="#ArialMT-80"/>
     <use x="1439.291016" xlink:href="#ArialMT-114"/>
     <use x="1472.591797" xlink:href="#ArialMT-111"/>
     <use x="1528.207031" xlink:href="#ArialMT-106"/>
     <use x="1550.423828" xlink:href="#ArialMT-101"/>
     <use x="1606.039062" xlink:href="#ArialMT-99"/>
     <use x="1656.039062" xlink:href="#ArialMT-116"/>
     <use x="1683.822266" xlink:href="#ArialMT-115"/>
     <use x="1733.822266" xlink:href="#ArialMT-32"/>
     <use x="1761.527344" xlink:href="#ArialMT-65"/>
     <use x="1828.210938" xlink:href="#ArialMT-118"/>
     <use x="1878.210938" xlink:href="#ArialMT-101"/>
     <use x="1933.826172" xlink:href="#ArialMT-114"/>
     <use x="1967.126953" xlink:href="#ArialMT-97"/>
     <use x="2022.742188" xlink:href="#ArialMT-103"/>
     <use x="2078.357422" xlink:href="#ArialMT-101"/>
     <use x="2133.972656" xlink:href="#ArialMT-100"/>
     <use x="2189.587891" xlink:href="#ArialMT-32"/>
     <use x="2217.371094" xlink:href="#ArialMT-111"/>
     <use x="2272.986328" xlink:href="#ArialMT-118"/>
     <use x="2322.986328" xlink:href="#ArialMT-101"/>
     <use x="2378.601562" xlink:href="#ArialMT-114"/>
     <use x="2411.902344" xlink:href="#ArialMT-32"/>
     <use x="2439.685547" xlink:href="#ArialMT-101"/>
     <use x="2495.300781" xlink:href="#ArialMT-97"/>
     <use x="2550.916016" xlink:href="#ArialMT-99"/>
     <use x="2600.916016" xlink:href="#ArialMT-104"/>
     <use x="2656.53125" xlink:href="#ArialMT-32"/>
     <use x="2684.298828" xlink:href="#ArialMT-89"/>
     <use x="2750.857422" xlink:href="#ArialMT-101"/>
     <use x="2806.472656" xlink:href="#ArialMT-97"/>
     <use x="2862.087891" xlink:href="#ArialMT-114"/>
     <use x="2895.310547" xlink:href="#ArialMT-46"/>
     <use x="2923.09375" xlink:href="#ArialMT-32"/>
     <use x="2950.861328" xlink:href="#ArialMT-89"/>
     <use x="3017.419922" xlink:href="#ArialMT-101"/>
     <use x="3073.035156" xlink:href="#ArialMT-97"/>
     <use x="3128.650391" xlink:href="#ArialMT-114"/>
     <use x="3161.951172" xlink:href="#ArialMT-115"/>
     <use x="3211.951172" xlink:href="#ArialMT-32"/>
     <use x="3239.734375" xlink:href="#ArialMT-49"/>
     <use x="3295.349609" xlink:href="#ArialMT-45"/>
     <use x="3328.650391" xlink:href="#ArialMT-52"/>
     <use x="3384.265625" xlink:href="#ArialMT-46"/>
     <use x="3412.048828" xlink:href="#ArialMT-32"/>
     <use x="3439.832031" xlink:href="#ArialMT-32"/>
    </g>
   </g>
   <g id="legend_1">
    <g id="patch_175">
     <path d="M 44.68375 90.682188 
L 125.035312 90.682188 
Q 127.035312 90.682188 127.035312 88.682188 
L 127.035312 32.543125 
Q 127.035312 30.543125 125.035312 30.543125 
L 44.68375 30.543125 
Q 42.68375 30.543125 42.68375 32.543125 
L 42.68375 88.682188 
Q 42.68375 90.682188 44.68375 90.682188 
z
" style="fill:#ffffff;opacity:0.8;stroke:#000000;stroke-linejoin:miter;stroke-width:0.3;"/>
    </g>
    <g id="patch_176">
     <path d="M 46.68375 41.730625 
L 66.68375 41.730625 
L 66.68375 34.730625 
L 46.68375 34.730625 
z
" style="fill:#ee3224;opacity:0.5;"/>
    </g>
    <g id="text_54">
     <!-- Year1_avg -->
     <defs>
      <path d="M -1.515625 -19.875 
L -1.515625 -13.53125 
L 56.734375 -13.53125 
L 56.734375 -19.875 
z
" id="ArialMT-95"/>
     </defs>
     <g style="fill:#262626;" transform="translate(74.68375 41.730625)scale(0.1 -0.1)">
      <use xlink:href="#ArialMT-89"/>
      <use x="66.558594" xlink:href="#ArialMT-101"/>
      <use x="122.173828" xlink:href="#ArialMT-97"/>
      <use x="177.789062" xlink:href="#ArialMT-114"/>
      <use x="211.089844" xlink:href="#ArialMT-49"/>
      <use x="266.705078" xlink:href="#ArialMT-95"/>
      <use x="322.320312" xlink:href="#ArialMT-97"/>
      <use x="377.935547" xlink:href="#ArialMT-118"/>
      <use x="427.935547" xlink:href="#ArialMT-103"/>
     </g>
    </g>
    <g id="patch_177">
     <path d="M 46.68375 56.022813 
L 66.68375 56.022813 
L 66.68375 49.022813 
L 46.68375 49.022813 
z
" style="fill:#ee3224;opacity:0.5;"/>
    </g>
    <g id="text_55">
     <!-- Year2_avg -->
     <g style="fill:#262626;" transform="translate(74.68375 56.022813)scale(0.1 -0.1)">
      <use xlink:href="#ArialMT-89"/>
      <use x="66.558594" xlink:href="#ArialMT-101"/>
      <use x="122.173828" xlink:href="#ArialMT-97"/>
      <use x="177.789062" xlink:href="#ArialMT-114"/>
      <use x="211.089844" xlink:href="#ArialMT-50"/>
      <use x="266.705078" xlink:href="#ArialMT-95"/>
      <use x="322.320312" xlink:href="#ArialMT-97"/>
      <use x="377.935547" xlink:href="#ArialMT-118"/>
      <use x="427.935547" xlink:href="#ArialMT-103"/>
     </g>
    </g>
    <g id="patch_178">
     <path d="M 46.68375 70.315 
L 66.68375 70.315 
L 66.68375 63.315 
L 46.68375 63.315 
z
" style="fill:#ee3224;opacity:0.5;"/>
    </g>
    <g id="text_56">
     <!-- Year3_avg -->
     <g style="fill:#262626;" transform="translate(74.68375 70.315)scale(0.1 -0.1)">
      <use xlink:href="#ArialMT-89"/>
      <use x="66.558594" xlink:href="#ArialMT-101"/>
      <use x="122.173828" xlink:href="#ArialMT-97"/>
      <use x="177.789062" xlink:href="#ArialMT-114"/>
      <use x="211.089844" xlink:href="#ArialMT-51"/>
      <use x="266.705078" xlink:href="#ArialMT-95"/>
      <use x="322.320312" xlink:href="#ArialMT-97"/>
      <use x="377.935547" xlink:href="#ArialMT-118"/>
      <use x="427.935547" xlink:href="#ArialMT-103"/>
     </g>
    </g>
    <g id="patch_179">
     <path d="M 46.68375 84.5775 
L 66.68375 84.5775 
L 66.68375 77.5775 
L 46.68375 77.5775 
z
" style="fill:#ee3224;opacity:0.5;"/>
    </g>
    <g id="text_57">
     <!-- Year4_avg -->
     <g style="fill:#262626;" transform="translate(74.68375 84.5775)scale(0.1 -0.1)">
      <use xlink:href="#ArialMT-89"/>
      <use x="66.558594" xlink:href="#ArialMT-101"/>
      <use x="122.173828" xlink:href="#ArialMT-97"/>
      <use x="177.789062" xlink:href="#ArialMT-114"/>
      <use x="211.089844" xlink:href="#ArialMT-52"/>
      <use x="266.705078" xlink:href="#ArialMT-95"/>
      <use x="322.320312" xlink:href="#ArialMT-97"/>
      <use x="377.935547" xlink:href="#ArialMT-118"/>
      <use x="427.935547" xlink:href="#ArialMT-103"/>
     </g>
    </g>
   </g>
  </g>
 </g>
 <defs>
  <clipPath id="pd61e0f04df">
   <rect height="307.511562" width="1535.51625" x="37.68375" y="25.543125"/>
  </clipPath>
 </defs>
</svg>
